{
  "source": "C:\\Users\\Peter\\Desktop\\stuff\\MIUN\\quantitative_research\\video_compression\\videos\\BVI-HD\\BVI-HD_CDVL_videos\\ORIG\\Grass_1920x1080_60fps.mp4",
  "output": "C:\\Users\\Peter\\Desktop\\stuff\\MIUN\\quantitative_research\\video_compression\\compressed_videos\\BVI-HD\\hevc\\8\\Grass_1920x1080_60fps_hevc.mp4",
  "codec": "hevc",
  "ok": "Input #0, mov,mp4,m4a,3gp,3g2,mj2, from 'C:\\Users\\Peter\\Desktop\\stuff\\MIUN\\quantitative_research\\video_compression\\videos\\BVI-HD\\BVI-HD_CDVL_videos\\ORIG\\Grass_1920x1080_60fps.mp4':\n  Metadata:\n    major_brand     : isom\n    minor_version   : 512\n    compatible_brands: isomiso2avc1mp41\n    encoder         : Lavf54.28.101\n  Duration: 00:00:05.00, start: 0.000000, bitrate: 655968 kb/s\n  Stream #0:0[0x1](und): Video: h264 (High 4:4:4 Predictive) (avc1 / 0x31637661), yuv420p(progressive), 1920x1080, 655963 kb/s, 60 fps, 60 tbr, 60 tbn (default)\n    Metadata:\n      handler_name    : VideoHandler\n      vendor_id       : [0][0][0][0]\n[out#0/mp4 @ 0000019965ebf040] Codec AVOption b:a (set bitrate (in bits/s)) has not been used for any stream. The most likely reason is either wrong type (e.g. a video option with no video streams) or that it is a private option of some decoder which was not actually used for any stream.\nStream mapping:\n  Stream #0:0 -> #0:0 (h264 (native) -> hevc (libx265))\nPress [q] to stop, [?] for help\n[libx265 @ 0000019963abc500] Unknown option: \"aq-mode.\nx265 [info]: HEVC encoder version 4.1+190-8f11c33ac\nx265 [info]: build info [Windows][GCC 15.1.0][64 bit] 10bit\nx265 [info]: using cpu capabilities: MMX2 SSE2Fast LZCNT SSSE3 SSE4.2 AVX FMA3 BMI2 AVX2\nx265 [info]: Main 10 profile, Level-4.1 (Main tier)\nx265 [info]: Thread pool created using 12 threads\nx265 [info]: Slices                              : 1\nx265 [info]: frame threads / pool features       : 3 / wpp(17 rows)\nx265 [info]: Coding QT: max CU size, min CU size : 64 / 8\nx265 [info]: Residual QT: max TU size, max depth : 32 / 1 inter / 1 intra\nx265 [info]: ME / range / subpel / merge         : star / 57 / 3 / 3\nx265 [info]: Keyframe min / max / scenecut / bias  : 25 / 250 / 40 / 5.00 \nx265 [info]: Lookahead / bframes / badapt        : 25 / 4 / 2\nx265 [info]: b-pyramid / weightp / weightb       : 1 / 1 / 0\nx265 [info]: References / ref-limit  cu / depth  : 4 / on / on\nx265 [info]: AQ: mode / str / qg-size / cu-tree  : 2 / 1.0 / 32 / 1\nx265 [info]: Rate Control / qCompress            : ABR-8000 kbps / 0.60\nx265 [info]: VBV/HRD buffer / max-rate / init    : 8000 / 8000 / 0.750\nx265 [info]: tools: rect limit-modes rd=4 psy-rd=2.00 rdoq=2 psy-rdoq=1.00\nx265 [info]: tools: rskip mode=1 signhide tmvp strong-intra-smoothing lslices=4\nx265 [info]: tools: deblock sao dhdr10-info\nOutput #0, mp4, to 'C:\\Users\\Peter\\Desktop\\stuff\\MIUN\\quantitative_research\\video_compression\\compressed_videos\\BVI-HD\\hevc\\8\\Grass_1920x1080_60fps_hevc.mp4':\n  Metadata:\n    major_brand     : isom\n    minor_version   : 512\n    compatible_brands: isomiso2avc1mp41\n    encoder         : Lavf62.3.100\n  Stream #0:0(und): Video: hevc (hev1 / 0x31766568), yuv420p10le(tv, progressive), 1920x1080, q=2-31, 8000 kb/s, 60 fps, 15360 tbn (default)\n    Metadata:\n      encoder         : Lavc62.11.100 libx265\n      handler_name    : VideoHandler\n      vendor_id       : [0][0][0][0]\n    Side data:\n      cpb: bitrate max/min/avg: 8000000/0/8000000 buffer size: 8000000 vbv_delay: N/A\nframe=    0 fps=0.0 q=0.0 size=       0KiB time=N/A bitrate=N/A speed=N/A elapsed=0:00:01.08    \nframe=    0 fps=0.0 q=0.0 size=       0KiB time=N/A bitrate=N/A speed=N/A elapsed=0:00:01.60    \nframe=    0 fps=0.0 q=0.0 size=       0KiB time=N/A bitrate=N/A speed=N/A elapsed=0:00:02.11    \nframe=    0 fps=0.0 q=0.0 size=       0KiB time=N/A bitrate=N/A speed=N/A elapsed=0:00:02.63    \nframe=    0 fps=0.0 q=0.0 size=       0KiB time=N/A bitrate=N/A speed=N/A elapsed=0:00:03.14    \nframe=    0 fps=0.0 q=0.0 size=       0KiB time=N/A bitrate=N/A speed=N/A elapsed=0:00:03.67    \nframe=    0 fps=0.0 q=0.0 size=       0KiB time=N/A bitrate=N/A speed=N/A elapsed=0:00:04.24    \nframe=    0 fps=0.0 q=0.0 size=       0KiB time=N/A bitrate=N/A speed=N/A elapsed=0:00:04.76    \nframe=    0 fps=0.0 q=0.0 size=       0KiB time=N/A bitrate=N/A speed=N/A elapsed=0:00:05.29    \nframe=    0 fps=0.0 q=0.0 size=       0KiB time=N/A bitrate=N/A speed=N/A elapsed=0:00:05.81    \nframe=    0 fps=0.0 q=0.0 size=       0KiB time=N/A bitrate=N/A speed=N/A elapsed=0:00:06.33    \nframe=    0 fps=0.0 q=0.0 size=       0KiB time=N/A bitrate=N/A speed=N/A elapsed=0:00:06.85    \nframe=    0 fps=0.0 q=0.0 size=       0KiB time=N/A bitrate=N/A speed=N/A elapsed=0:00:07.36    \nframe=    0 fps=0.0 q=0.0 size=       0KiB time=N/A bitrate=N/A speed=N/A elapsed=0:00:07.88    \nframe=    0 fps=0.0 q=0.0 size=       0KiB time=N/A bitrate=N/A speed=N/A elapsed=0:00:08.41    \nframe=    0 fps=0.0 q=0.0 size=       0KiB time=N/A bitrate=N/A speed=N/A elapsed=0:00:08.95    \nframe=    0 fps=0.0 q=0.0 size=       0KiB time=N/A bitrate=N/A speed=N/A elapsed=0:00:09.47    \nframe=    0 fps=0.0 q=0.0 size=       0KiB time=N/A bitrate=N/A speed=N/A elapsed=0:00:09.99    \nframe=    0 fps=0.0 q=0.0 size=       0KiB time=N/A bitrate=N/A speed=N/A elapsed=0:00:10.54    \nframe=    0 fps=0.0 q=0.0 size=       0KiB time=N/A bitrate=N/A speed=N/A elapsed=0:00:11.08    \nframe=    0 fps=0.0 q=0.0 size=       0KiB time=N/A bitrate=N/A speed=N/A elapsed=0:00:11.60    \nframe=    0 fps=0.0 q=0.0 size=       0KiB time=N/A bitrate=N/A speed=N/A elapsed=0:00:12.15    \nframe=    0 fps=0.0 q=0.0 size=       0KiB time=N/A bitrate=N/A speed=N/A elapsed=0:00:12.67    \nframe=    0 fps=0.0 q=0.0 size=       0KiB time=N/A bitrate=N/A speed=N/A elapsed=0:00:13.20    \nframe=    1 fps=0.1 q=31.9 size=       0KiB time=-00:00:00.01 bitrate=N/A speed=N/A elapsed=0:00:13.74    \nframe=    1 fps=0.1 q=31.9 size=       0KiB time=-00:00:00.01 bitrate=N/A speed=N/A elapsed=0:00:14.28    \nframe=    1 fps=0.1 q=31.9 size=       0KiB time=-00:00:00.01 bitrate=N/A speed=N/A elapsed=0:00:14.83    \nframe=    3 fps=0.2 q=45.3 size=       0KiB time=00:00:00.01 bitrate=  21.1kbits/s speed=0.00108x elapsed=0:00:15.36    \nframe=    3 fps=0.2 q=45.3 size=       0KiB time=00:00:00.01 bitrate=  21.1kbits/s speed=0.00105x elapsed=0:00:15.89    \nframe=    3 fps=0.2 q=45.3 size=       0KiB time=00:00:00.01 bitrate=  21.1kbits/s speed=0.00101x elapsed=0:00:16.43    \nframe=    3 fps=0.2 q=45.3 size=       0KiB time=00:00:00.01 bitrate=  21.1kbits/s speed=0.000984x elapsed=0:00:16.94    \nframe=    3 fps=0.2 q=45.3 size=       0KiB time=00:00:00.01 bitrate=  21.1kbits/s speed=0.000954x elapsed=0:00:17.46    \nframe=    3 fps=0.2 q=45.3 size=       0KiB time=00:00:00.01 bitrate=  21.1kbits/s speed=0.000925x elapsed=0:00:18.01    \nframe=    4 fps=0.2 q=47.1 size=       0KiB time=00:00:00.03 bitrate=  10.6kbits/s speed=0.0018x elapsed=0:00:18.53    \nframe=    5 fps=0.3 q=47.0 size=       0KiB time=00:00:00.05 bitrate=   7.0kbits/s speed=0.00262x elapsed=0:00:19.05    \nframe=    5 fps=0.3 q=47.0 size=       0KiB time=00:00:00.05 bitrate=   7.0kbits/s speed=0.00255x elapsed=0:00:19.57    \nframe=    7 fps=0.3 q=42.6 size=       0KiB time=00:00:00.08 bitrate=   4.2kbits/s speed=0.00415x elapsed=0:00:20.09    \nframe=    8 fps=0.4 q=41.9 size=     256KiB time=00:00:00.10 bitrate=20975.0kbits/s speed=0.00484x elapsed=0:00:20.65    \nframe=    8 fps=0.4 q=41.9 size=     256KiB time=00:00:00.10 bitrate=20975.0kbits/s speed=0.00471x elapsed=0:00:21.21    \nframe=    8 fps=0.4 q=41.9 size=     256KiB time=00:00:00.10 bitrate=20975.0kbits/s speed=0.0046x elapsed=0:00:21.75    \nframe=    8 fps=0.4 q=41.9 size=     256KiB time=00:00:00.10 bitrate=20975.0kbits/s speed=0.00449x elapsed=0:00:22.27    \nframe=    8 fps=0.4 q=41.9 size=     256KiB time=00:00:00.10 bitrate=20975.0kbits/s speed=0.00439x elapsed=0:00:22.79    \nframe=    8 fps=0.3 q=41.9 size=     256KiB time=00:00:00.10 bitrate=20975.0kbits/s speed=0.00429x elapsed=0:00:23.32    \nframe=    9 fps=0.4 q=43.9 size=     256KiB time=00:00:00.11 bitrate=17978.6kbits/s speed=0.00489x elapsed=0:00:23.85    \nframe=    9 fps=0.4 q=43.9 size=     256KiB time=00:00:00.11 bitrate=17978.6kbits/s speed=0.00479x elapsed=0:00:24.37    \nframe=   10 fps=0.4 q=43.1 size=     256KiB time=00:00:00.13 bitrate=15731.3kbits/s speed=0.00535x elapsed=0:00:24.92    \nframe=   11 fps=0.4 q=34.0 size=     256KiB time=00:00:00.15 bitrate=13983.4kbits/s speed=0.00589x elapsed=0:00:25.46    \nframe=   11 fps=0.4 q=34.0 size=     256KiB time=00:00:00.15 bitrate=13983.4kbits/s speed=0.00577x elapsed=0:00:25.99    \nframe=   11 fps=0.4 q=34.0 size=     256KiB time=00:00:00.15 bitrate=13983.4kbits/s speed=0.00566x elapsed=0:00:26.51    \nframe=   11 fps=0.4 q=34.0 size=     256KiB time=00:00:00.15 bitrate=13983.4kbits/s speed=0.00555x elapsed=0:00:27.02    \nframe=   11 fps=0.4 q=34.0 size=     256KiB time=00:00:00.15 bitrate=13983.4kbits/s speed=0.00544x elapsed=0:00:27.55    \nframe=   11 fps=0.4 q=34.0 size=     256KiB time=00:00:00.15 bitrate=13983.4kbits/s speed=0.00534x elapsed=0:00:28.08    \nframe=   12 fps=0.4 q=41.1 size=     256KiB time=00:00:00.16 bitrate=12585.0kbits/s speed=0.00582x elapsed=0:00:28.61    \nframe=   12 fps=0.4 q=41.1 size=     256KiB time=00:00:00.16 bitrate=12585.0kbits/s speed=0.00572x elapsed=0:00:29.13    \nframe=   13 fps=0.4 q=42.0 size=     256KiB time=00:00:00.18 bitrate=11441.0kbits/s speed=0.00617x elapsed=0:00:29.69    \nframe=   13 fps=0.4 q=42.0 size=     256KiB time=00:00:00.18 bitrate=11441.0kbits/s speed=0.00606x elapsed=0:00:30.23    \nframe=   14 fps=0.5 q=34.1 size=     256KiB time=00:00:00.20 bitrate=10487.5kbits/s speed=0.0065x elapsed=0:00:30.76    \nframe=   14 fps=0.4 q=34.1 size=     256KiB time=00:00:00.20 bitrate=10487.5kbits/s speed=0.00639x elapsed=0:00:31.28    \nframe=   15 fps=0.5 q=39.6 size=     256KiB time=00:00:00.21 bitrate=9680.8kbits/s speed=0.0068x elapsed=0:00:31.85    \nframe=   15 fps=0.5 q=39.6 size=     256KiB time=00:00:00.21 bitrate=9680.8kbits/s speed=0.00669x elapsed=0:00:32.39    \nframe=   15 fps=0.5 q=39.6 size=     256KiB time=00:00:00.21 bitrate=9680.8kbits/s speed=0.00657x elapsed=0:00:32.99    \nframe=   15 fps=0.4 q=39.6 size=     256KiB time=00:00:00.21 bitrate=9680.8kbits/s speed=0.00646x elapsed=0:00:33.55    \nframe=   15 fps=0.4 q=39.6 size=     256KiB time=00:00:00.21 bitrate=9680.8kbits/s speed=0.00635x elapsed=0:00:34.11    \nframe=   15 fps=0.4 q=39.6 size=     256KiB time=00:00:00.21 bitrate=9680.8kbits/s speed=0.00622x elapsed=0:00:34.80    \nframe=   16 fps=0.5 q=42.2 size=     256KiB time=00:00:00.23 bitrate=8989.3kbits/s speed=0.00659x elapsed=0:00:35.38    \nframe=   16 fps=0.4 q=42.2 size=     256KiB time=00:00:00.23 bitrate=8989.3kbits/s speed=0.00649x elapsed=0:00:35.93    \nframe=   16 fps=0.4 q=42.2 size=     256KiB time=00:00:00.23 bitrate=8989.3kbits/s speed=0.00639x elapsed=0:00:36.49    \nframe=   17 fps=0.5 q=42.1 size=     256KiB time=00:00:00.25 bitrate=8390.0kbits/s speed=0.00675x elapsed=0:00:37.01    \nframe=   17 fps=0.5 q=42.1 size=     256KiB time=00:00:00.25 bitrate=8390.0kbits/s speed=0.00666x elapsed=0:00:37.54    \nframe=   18 fps=0.5 q=33.7 size=     256KiB time=00:00:00.26 bitrate=7865.6kbits/s speed=0.007x elapsed=0:00:38.10    \nframe=   19 fps=0.5 q=39.6 size=     256KiB time=00:00:00.26 bitrate=7865.6kbits/s speed=0.0069x elapsed=0:00:38.65    \nframe=   19 fps=0.5 q=39.6 size=     256KiB time=00:00:00.28 bitrate=7403.0kbits/s speed=0.00722x elapsed=0:00:39.22    \nframe=   19 fps=0.5 q=39.6 size=     256KiB time=00:00:00.28 bitrate=7403.0kbits/s speed=0.00712x elapsed=0:00:39.78    \nframe=   19 fps=0.5 q=39.6 size=     256KiB time=00:00:00.28 bitrate=7403.0kbits/s speed=0.00703x elapsed=0:00:40.32    \nframe=   19 fps=0.5 q=39.6 size=     256KiB time=00:00:00.28 bitrate=7403.0kbits/s speed=0.00693x elapsed=0:00:40.88    \nframe=   19 fps=0.5 q=39.6 size=     256KiB time=00:00:00.28 bitrate=7403.0kbits/s speed=0.00683x elapsed=0:00:41.47    \nframe=   19 fps=0.5 q=39.6 size=     256KiB time=00:00:00.28 bitrate=7403.0kbits/s speed=0.00674x elapsed=0:00:42.02    \nframe=   19 fps=0.4 q=39.6 size=     256KiB time=00:00:00.28 bitrate=7403.0kbits/s speed=0.00665x elapsed=0:00:42.60    \nframe=   19 fps=0.4 q=39.6 size=     256KiB time=00:00:00.28 bitrate=7403.0kbits/s speed=0.00657x elapsed=0:00:43.15    \nframe=   19 fps=0.4 q=39.6 size=     256KiB time=00:00:00.28 bitrate=7403.0kbits/s speed=0.00648x elapsed=0:00:43.70    \nframe=   19 fps=0.4 q=39.6 size=     256KiB time=00:00:00.28 bitrate=7403.0kbits/s speed=0.00641x elapsed=0:00:44.22    \nframe=   20 fps=0.4 q=42.1 size=     256KiB time=00:00:00.30 bitrate=6991.7kbits/s speed=0.0067x elapsed=0:00:44.74    \nframe=   20 fps=0.4 q=42.1 size=     256KiB time=00:00:00.30 bitrate=6991.7kbits/s speed=0.00663x elapsed=0:00:45.27    \nframe=   20 fps=0.4 q=42.1 size=     256KiB time=00:00:00.30 bitrate=6991.7kbits/s speed=0.00654x elapsed=0:00:45.85    \nframe=   20 fps=0.4 q=42.1 size=     256KiB time=00:00:00.30 bitrate=6991.7kbits/s speed=0.00647x elapsed=0:00:46.40    \nframe=   20 fps=0.4 q=42.1 size=     256KiB time=00:00:00.30 bitrate=6991.7kbits/s speed=0.00639x elapsed=0:00:46.96    \nframe=   21 fps=0.4 q=42.0 size=     256KiB time=00:00:00.31 bitrate=6623.7kbits/s speed=0.00667x elapsed=0:00:47.49    \nframe=   21 fps=0.4 q=42.0 size=     256KiB time=00:00:00.31 bitrate=6623.7kbits/s speed=0.00659x elapsed=0:00:48.06    \nframe=   21 fps=0.4 q=42.0 size=     256KiB time=00:00:00.31 bitrate=6623.7kbits/s speed=0.00651x elapsed=0:00:48.61    \nframe=   21 fps=0.4 q=42.0 size=     256KiB time=00:00:00.31 bitrate=6623.7kbits/s speed=0.00644x elapsed=0:00:49.17    \nframe=   21 fps=0.4 q=42.0 size=     256KiB time=00:00:00.31 bitrate=6623.7kbits/s speed=0.00637x elapsed=0:00:49.72    \nframe=   22 fps=0.4 q=33.6 size=     256KiB time=00:00:00.33 bitrate=6292.5kbits/s speed=0.00663x elapsed=0:00:50.30    \nframe=   23 fps=0.5 q=39.0 size=     256KiB time=00:00:00.35 bitrate=5992.9kbits/s speed=0.00687x elapsed=0:00:50.93    \nframe=   23 fps=0.4 q=39.0 size=     256KiB time=00:00:00.35 bitrate=5992.9kbits/s speed=0.0068x elapsed=0:00:51.50    \nframe=   23 fps=0.4 q=39.0 size=     256KiB time=00:00:00.35 bitrate=5992.9kbits/s speed=0.00672x elapsed=0:00:52.07    \nframe=   23 fps=0.4 q=39.0 size=     256KiB time=00:00:00.35 bitrate=5992.9kbits/s speed=0.00665x elapsed=0:00:52.59    \nframe=   23 fps=0.4 q=39.0 size=     256KiB time=00:00:00.35 bitrate=5992.9kbits/s speed=0.00659x elapsed=0:00:53.14    \nframe=   23 fps=0.4 q=39.0 size=     256KiB time=00:00:00.35 bitrate=5992.9kbits/s speed=0.00652x elapsed=0:00:53.71    \nframe=   23 fps=0.4 q=39.0 size=     256KiB time=00:00:00.35 bitrate=5992.9kbits/s speed=0.00645x elapsed=0:00:54.24    \nframe=   23 fps=0.4 q=39.0 size=     256KiB time=00:00:00.35 bitrate=5992.9kbits/s speed=0.00638x elapsed=0:00:54.83    \nframe=   23 fps=0.4 q=39.0 size=     256KiB time=00:00:00.35 bitrate=5992.9kbits/s speed=0.00632x elapsed=0:00:55.35    \nframe=   23 fps=0.4 q=39.0 size=     256KiB time=00:00:00.35 bitrate=5992.9kbits/s speed=0.00626x elapsed=0:00:55.92    \nframe=   23 fps=0.4 q=39.0 size=     256KiB time=00:00:00.35 bitrate=5992.9kbits/s speed=0.00619x elapsed=0:00:56.52    \nframe=   23 fps=0.4 q=39.0 size=     256KiB time=00:00:00.35 bitrate=5992.9kbits/s speed=0.00613x elapsed=0:00:57.08    \nframe=   23 fps=0.4 q=39.0 size=     256KiB time=00:00:00.35 bitrate=5992.9kbits/s speed=0.00607x elapsed=0:00:57.68    \nframe=   23 fps=0.4 q=39.0 size=     256KiB time=00:00:00.35 bitrate=5992.9kbits/s speed=0.006x elapsed=0:00:58.31    \nframe=   23 fps=0.4 q=39.0 size=     256KiB time=00:00:00.35 bitrate=5992.9kbits/s speed=0.00594x elapsed=0:00:58.91    \nframe=   23 fps=0.4 q=39.0 size=     256KiB time=00:00:00.35 bitrate=5992.9kbits/s speed=0.00588x elapsed=0:00:59.49    \nframe=   23 fps=0.4 q=39.0 size=     256KiB time=00:00:00.35 bitrate=5992.9kbits/s speed=0.00582x elapsed=0:01:00.08    \nframe=   23 fps=0.4 q=39.0 size=     256KiB time=00:00:00.35 bitrate=5992.9kbits/s speed=0.00576x elapsed=0:01:00.72    \nframe=   23 fps=0.4 q=39.0 size=     256KiB time=00:00:00.35 bitrate=5992.9kbits/s speed=0.0057x elapsed=0:01:01.35    \nframe=   23 fps=0.4 q=39.0 size=     256KiB time=00:00:00.35 bitrate=5992.9kbits/s speed=0.00565x elapsed=0:01:01.93    \nframe=   23 fps=0.4 q=39.0 size=     256KiB time=00:00:00.35 bitrate=5992.9kbits/s speed=0.0056x elapsed=0:01:02.52    \nframe=   23 fps=0.4 q=39.0 size=     256KiB time=00:00:00.35 bitrate=5992.9kbits/s speed=0.00554x elapsed=0:01:03.20    \nframe=   23 fps=0.4 q=39.0 size=     256KiB time=00:00:00.35 bitrate=5992.9kbits/s speed=0.00549x elapsed=0:01:03.76    \nframe=   23 fps=0.4 q=39.0 size=     256KiB time=00:00:00.35 bitrate=5992.9kbits/s speed=0.00544x elapsed=0:01:04.38    \nframe=   24 fps=0.4 q=42.0 size=     256KiB time=00:00:00.36 bitrate=5720.5kbits/s speed=0.00564x elapsed=0:01:04.95    \nframe=   24 fps=0.4 q=42.0 size=     256KiB time=00:00:00.36 bitrate=5720.5kbits/s speed=0.0056x elapsed=0:01:05.52    \nframe=   24 fps=0.4 q=42.0 size=     256KiB time=00:00:00.36 bitrate=5720.5kbits/s speed=0.00555x elapsed=0:01:06.05    \nframe=   24 fps=0.4 q=42.0 size=     256KiB time=00:00:00.36 bitrate=5720.5kbits/s speed=0.0055x elapsed=0:01:06.63    \nframe=   24 fps=0.4 q=42.0 size=     256KiB time=00:00:00.36 bitrate=5720.5kbits/s speed=0.00546x elapsed=0:01:07.19    \nframe=   24 fps=0.4 q=42.0 size=     256KiB time=00:00:00.36 bitrate=5720.5kbits/s speed=0.00541x elapsed=0:01:07.75    \nframe=   25 fps=0.4 q=41.9 size=     256KiB time=00:00:00.38 bitrate=5471.8kbits/s speed=0.00561x elapsed=0:01:08.31    \nframe=   25 fps=0.4 q=41.9 size=     256KiB time=00:00:00.38 bitrate=5471.8kbits/s speed=0.00557x elapsed=0:01:08.84    \nframe=   26 fps=0.4 q=33.3 size=     256KiB time=00:00:00.40 bitrate=5243.8kbits/s speed=0.00576x elapsed=0:01:09.41    \nframe=   26 fps=0.4 q=33.3 size=     256KiB time=00:00:00.40 bitrate=5243.8kbits/s speed=0.00572x elapsed=0:01:09.98    \nframe=   26 fps=0.4 q=33.3 size=     256KiB time=00:00:00.40 bitrate=5243.8kbits/s speed=0.00567x elapsed=0:01:10.52    \nframe=   26 fps=0.4 q=33.3 size=     256KiB time=00:00:00.40 bitrate=5243.8kbits/s speed=0.00563x elapsed=0:01:11.08    \nframe=   27 fps=0.4 q=38.9 size=     256KiB time=00:00:00.41 bitrate=5034.0kbits/s speed=0.00582x elapsed=0:01:11.60    \nframe=   27 fps=0.4 q=38.9 size=     256KiB time=00:00:00.41 bitrate=5034.0kbits/s speed=0.00578x elapsed=0:01:12.11    \nframe=   27 fps=0.4 q=38.9 size=     256KiB time=00:00:00.41 bitrate=5034.0kbits/s speed=0.00574x elapsed=0:01:12.63    \nframe=   27 fps=0.4 q=38.9 size=     256KiB time=00:00:00.41 bitrate=5034.0kbits/s speed=0.00569x elapsed=0:01:13.18    \nframe=   27 fps=0.4 q=38.9 size=     256KiB time=00:00:00.41 bitrate=5034.0kbits/s speed=0.00565x elapsed=0:01:13.70    \nframe=   28 fps=0.4 q=41.9 size=     256KiB time=00:00:00.43 bitrate=4840.4kbits/s speed=0.00584x elapsed=0:01:14.23    \nframe=   28 fps=0.4 q=41.9 size=     256KiB time=00:00:00.43 bitrate=4840.4kbits/s speed=0.00579x elapsed=0:01:14.82    \nframe=   29 fps=0.4 q=33.6 size=     256KiB time=00:00:00.45 bitrate=4661.1kbits/s speed=0.00597x elapsed=0:01:15.38    \nframe=   29 fps=0.4 q=33.6 size=     256KiB time=00:00:00.45 bitrate=4661.1kbits/s speed=0.00593x elapsed=0:01:15.92    \nframe=   29 fps=0.4 q=33.6 size=     256KiB time=00:00:00.45 bitrate=4661.1kbits/s speed=0.00588x elapsed=0:01:16.47    \nframe=   30 fps=0.4 q=38.6 size=     512KiB time=00:00:00.46 bitrate=8988.5kbits/s speed=0.00606x elapsed=0:01:17.03    \nframe=   30 fps=0.4 q=38.6 size=     512KiB time=00:00:00.46 bitrate=8988.5kbits/s speed=0.00601x elapsed=0:01:17.62    \nframe=   30 fps=0.4 q=38.6 size=     512KiB time=00:00:00.46 bitrate=8988.5kbits/s speed=0.00597x elapsed=0:01:18.19    \nframe=   30 fps=0.4 q=38.6 size=     512KiB time=00:00:00.46 bitrate=8988.5kbits/s speed=0.00593x elapsed=0:01:18.72    \nframe=   30 fps=0.4 q=38.6 size=     512KiB time=00:00:00.46 bitrate=8988.5kbits/s speed=0.00589x elapsed=0:01:19.23    \nframe=   30 fps=0.4 q=38.6 size=     512KiB time=00:00:00.46 bitrate=8988.5kbits/s speed=0.00585x elapsed=0:01:19.81    \nframe=   30 fps=0.4 q=38.6 size=     512KiB time=00:00:00.46 bitrate=8988.5kbits/s speed=0.00581x elapsed=0:01:20.36    \nframe=   30 fps=0.4 q=38.6 size=     512KiB time=00:00:00.46 bitrate=8988.5kbits/s speed=0.00577x elapsed=0:01:20.92    \nframe=   30 fps=0.4 q=38.6 size=     512KiB time=00:00:00.46 bitrate=8988.5kbits/s speed=0.00573x elapsed=0:01:21.46    \nframe=   30 fps=0.4 q=38.6 size=     512KiB time=00:00:00.46 bitrate=8988.5kbits/s speed=0.00569x elapsed=0:01:21.98    \nframe=   30 fps=0.4 q=38.6 size=     512KiB time=00:00:00.46 bitrate=8988.5kbits/s speed=0.00566x elapsed=0:01:22.50    \nframe=   31 fps=0.4 q=41.1 size=     512KiB time=00:00:00.48 bitrate=8678.6kbits/s speed=0.00582x elapsed=0:01:23.03    \nframe=   31 fps=0.4 q=41.1 size=     512KiB time=00:00:00.48 bitrate=8678.6kbits/s speed=0.00578x elapsed=0:01:23.57    \nframe=   31 fps=0.4 q=41.1 size=     512KiB time=00:00:00.48 bitrate=8678.6kbits/s speed=0.00575x elapsed=0:01:24.10    \nframe=   31 fps=0.4 q=41.1 size=     512KiB time=00:00:00.48 bitrate=8678.6kbits/s speed=0.00571x elapsed=0:01:24.64    \nframe=   31 fps=0.4 q=41.1 size=     512KiB time=00:00:00.48 bitrate=8678.6kbits/s speed=0.00567x elapsed=0:01:25.21    \nframe=   32 fps=0.4 q=41.0 size=     512KiB time=00:00:00.50 bitrate=8389.3kbits/s speed=0.00583x elapsed=0:01:25.73    \nframe=   33 fps=0.4 q=33.3 size=     512KiB time=00:00:00.51 bitrate=8118.7kbits/s speed=0.00599x elapsed=0:01:26.27    \nframe=   34 fps=0.4 q=38.4 size=     512KiB time=00:00:00.53 bitrate=7865.0kbits/s speed=0.00614x elapsed=0:01:26.81    \nframe=   34 fps=0.4 q=38.4 size=     512KiB time=00:00:00.53 bitrate=7865.0kbits/s speed=0.0061x elapsed=0:01:27.36    \nframe=   34 fps=0.4 q=38.4 size=     512KiB time=00:00:00.53 bitrate=7865.0kbits/s speed=0.00607x elapsed=0:01:27.89    \nframe=   34 fps=0.4 q=38.4 size=     512KiB time=00:00:00.53 bitrate=7865.0kbits/s speed=0.00603x elapsed=0:01:28.45    \nframe=   34 fps=0.4 q=38.4 size=     512KiB time=00:00:00.53 bitrate=7865.0kbits/s speed=0.00599x elapsed=0:01:28.97    \nframe=   34 fps=0.4 q=38.4 size=     512KiB time=00:00:00.53 bitrate=7865.0kbits/s speed=0.00596x elapsed=0:01:29.54    \nframe=   35 fps=0.4 q=40.9 size=     512KiB time=00:00:00.55 bitrate=7626.6kbits/s speed=0.00611x elapsed=0:01:30.08    \nframe=   35 fps=0.4 q=40.9 size=     512KiB time=00:00:00.55 bitrate=7626.6kbits/s speed=0.00607x elapsed=0:01:30.62    \nframe=   35 fps=0.4 q=40.9 size=     512KiB time=00:00:00.55 bitrate=7626.6kbits/s speed=0.00603x elapsed=0:01:31.14    \nframe=   36 fps=0.4 q=40.7 size=     512KiB time=00:00:00.56 bitrate=7402.3kbits/s speed=0.00618x elapsed=0:01:31.68    \nframe=   37 fps=0.4 q=33.1 size=     512KiB time=00:00:00.58 bitrate=7190.8kbits/s speed=0.00632x elapsed=0:01:32.23    \nframe=   38 fps=0.4 q=38.2 size=     512KiB time=00:00:00.60 bitrate=6991.1kbits/s speed=0.00647x elapsed=0:01:32.75    \nframe=   38 fps=0.4 q=38.2 size=     512KiB time=00:00:00.60 bitrate=6991.1kbits/s speed=0.00643x elapsed=0:01:33.27    \nframe=   38 fps=0.4 q=38.2 size=     512KiB time=00:00:00.60 bitrate=6991.1kbits/s speed=0.0064x elapsed=0:01:33.81    \nframe=   38 fps=0.4 q=38.2 size=     512KiB time=00:00:00.60 bitrate=6991.1kbits/s speed=0.00636x elapsed=0:01:34.36    \nframe=   38 fps=0.4 q=38.2 size=     512KiB time=00:00:00.60 bitrate=6991.1kbits/s speed=0.00632x elapsed=0:01:34.89    \nframe=   39 fps=0.4 q=40.1 size=     512KiB time=00:00:00.61 bitrate=6802.1kbits/s speed=0.00646x elapsed=0:01:35.42    \nframe=   40 fps=0.4 q=40.1 size=     512KiB time=00:00:00.63 bitrate=6623.1kbits/s speed=0.0066x elapsed=0:01:35.96    \nframe=   40 fps=0.4 q=40.1 size=     512KiB time=00:00:00.63 bitrate=6623.1kbits/s speed=0.00656x elapsed=0:01:36.49    \nframe=   41 fps=0.4 q=32.8 size=     512KiB time=00:00:00.65 bitrate=6453.3kbits/s speed=0.0067x elapsed=0:01:37.05    \nframe=   41 fps=0.4 q=32.8 size=     512KiB time=00:00:00.65 bitrate=6453.3kbits/s speed=0.00666x elapsed=0:01:37.58    \nframe=   41 fps=0.4 q=32.8 size=     512KiB time=00:00:00.65 bitrate=6453.3kbits/s speed=0.00662x elapsed=0:01:38.14    \nframe=   41 fps=0.4 q=32.8 size=     512KiB time=00:00:00.65 bitrate=6453.3kbits/s speed=0.00659x elapsed=0:01:38.68    \nframe=   41 fps=0.4 q=32.8 size=     512KiB time=00:00:00.65 bitrate=6453.3kbits/s speed=0.00655x elapsed=0:01:39.22    \nframe=   41 fps=0.4 q=32.8 size=     512KiB time=00:00:00.65 bitrate=6453.3kbits/s speed=0.00652x elapsed=0:01:39.74    \nframe=   41 fps=0.4 q=32.8 size=     512KiB time=00:00:00.65 bitrate=6453.3kbits/s speed=0.00648x elapsed=0:01:40.26    \nframe=   41 fps=0.4 q=32.8 size=     512KiB time=00:00:00.65 bitrate=6453.3kbits/s speed=0.00645x elapsed=0:01:40.79    \nframe=   41 fps=0.4 q=32.8 size=     512KiB time=00:00:00.65 bitrate=6453.3kbits/s speed=0.00641x elapsed=0:01:41.33    \nframe=   42 fps=0.4 q=38.1 size=     512KiB time=00:00:00.66 bitrate=6292.0kbits/s speed=0.00654x elapsed=0:01:41.86    \nframe=   43 fps=0.4 q=40.1 size=     512KiB time=00:00:00.68 bitrate=6138.5kbits/s speed=0.00667x elapsed=0:01:42.39    \nframe=   43 fps=0.4 q=40.1 size=     512KiB time=00:00:00.68 bitrate=6138.5kbits/s speed=0.00664x elapsed=0:01:42.90    \nframe=   44 fps=0.4 q=33.0 size=     512KiB time=00:00:00.70 bitrate=5992.4kbits/s speed=0.00677x elapsed=0:01:43.46    \nframe=   45 fps=0.4 q=37.8 size=     512KiB time=00:00:00.71 bitrate=5853.0kbits/s speed=0.00689x elapsed=0:01:44.00    \nframe=   45 fps=0.4 q=37.8 size=     512KiB time=00:00:00.71 bitrate=5853.0kbits/s speed=0.00686x elapsed=0:01:44.51    \nframe=   45 fps=0.4 q=37.8 size=     512KiB time=00:00:00.71 bitrate=5853.0kbits/s speed=0.00682x elapsed=0:01:45.08    \nframe=   45 fps=0.4 q=37.8 size=     512KiB time=00:00:00.71 bitrate=5853.0kbits/s speed=0.00678x elapsed=0:01:45.64    \nframe=   45 fps=0.4 q=37.8 size=     512KiB time=00:00:00.71 bitrate=5853.0kbits/s speed=0.00675x elapsed=0:01:46.21    \nframe=   45 fps=0.4 q=37.8 size=     512KiB time=00:00:00.71 bitrate=5853.0kbits/s speed=0.00671x elapsed=0:01:46.76    \nframe=   45 fps=0.4 q=37.8 size=     512KiB time=00:00:00.71 bitrate=5853.0kbits/s speed=0.00668x elapsed=0:01:47.34    \nframe=   45 fps=0.4 q=37.8 size=     512KiB time=00:00:00.71 bitrate=5853.0kbits/s speed=0.00664x elapsed=0:01:47.93    \nframe=   45 fps=0.4 q=37.8 size=     512KiB time=00:00:00.71 bitrate=5853.0kbits/s speed=0.0066x elapsed=0:01:48.52    \nframe=   45 fps=0.4 q=37.8 size=     512KiB time=00:00:00.71 bitrate=5853.0kbits/s speed=0.00657x elapsed=0:01:49.05    \nframe=   45 fps=0.4 q=37.8 size=     512KiB time=00:00:00.71 bitrate=5853.0kbits/s speed=0.00654x elapsed=0:01:49.57    \nframe=   46 fps=0.4 q=40.0 size=     512KiB time=00:00:00.73 bitrate=5720.0kbits/s speed=0.00666x elapsed=0:01:50.11    \nframe=   46 fps=0.4 q=40.0 size=     512KiB time=00:00:00.73 bitrate=5720.0kbits/s speed=0.00663x elapsed=0:01:50.63    \nframe=   48 fps=0.4 q=32.8 size=     512KiB time=00:00:00.76 bitrate=5471.3kbits/s speed=0.0069x elapsed=0:01:51.16    \nframe=   49 fps=0.4 q=37.6 size=     768KiB time=00:00:00.78 bitrate=8032.1kbits/s speed=0.00701x elapsed=0:01:51.73    \nframe=   49 fps=0.4 q=37.6 size=     768KiB time=00:00:00.78 bitrate=8032.1kbits/s speed=0.00698x elapsed=0:01:52.24    \nframe=   49 fps=0.4 q=37.6 size=     768KiB time=00:00:00.78 bitrate=8032.1kbits/s speed=0.00695x elapsed=0:01:52.78    \nframe=   50 fps=0.4 q=40.0 size=     768KiB time=00:00:00.80 bitrate=7864.8kbits/s speed=0.00706x elapsed=0:01:53.31    \nframe=   51 fps=0.4 q=40.0 size=     768KiB time=00:00:00.81 bitrate=7704.3kbits/s speed=0.00717x elapsed=0:01:53.84    \nframe=   52 fps=0.5 q=32.7 size=     768KiB time=00:00:00.83 bitrate=7550.2kbits/s speed=0.00729x elapsed=0:01:54.36    \nframe=   52 fps=0.5 q=32.7 size=     768KiB time=00:00:00.83 bitrate=7550.2kbits/s speed=0.00725x elapsed=0:01:54.90    \nframe=   52 fps=0.5 q=32.7 size=     768KiB time=00:00:00.83 bitrate=7550.2kbits/s speed=0.00722x elapsed=0:01:55.42    \nframe=   53 fps=0.5 q=37.7 size=     768KiB time=00:00:00.85 bitrate=7402.1kbits/s speed=0.00733x elapsed=0:01:55.95    \nframe=   54 fps=0.5 q=39.7 size=     768KiB time=00:00:00.86 bitrate=7259.8kbits/s speed=0.00744x elapsed=0:01:56.46    \nframe=   55 fps=0.5 q=32.7 size=     768KiB time=00:00:00.88 bitrate=7122.8kbits/s speed=0.00755x elapsed=0:01:56.98    \nframe=   56 fps=0.5 q=37.3 size=     768KiB time=00:00:00.90 bitrate=6990.9kbits/s speed=0.00766x elapsed=0:01:57.51    \nframe=   56 fps=0.5 q=37.3 size=     768KiB time=00:00:00.90 bitrate=6990.9kbits/s speed=0.00762x elapsed=0:01:58.04    \nframe=   56 fps=0.5 q=37.3 size=     768KiB time=00:00:00.90 bitrate=6990.9kbits/s speed=0.00759x elapsed=0:01:58.56    \nframe=   57 fps=0.5 q=39.0 size=     768KiB time=00:00:00.91 bitrate=6863.8kbits/s speed=0.0077x elapsed=0:01:59.08    \nframe=   58 fps=0.5 q=39.0 size=     768KiB time=00:00:00.93 bitrate=6741.2kbits/s speed=0.0078x elapsed=0:01:59.60    \nframe=   59 fps=0.5 q=32.6 size=     768KiB time=00:00:00.95 bitrate=6623.0kbits/s speed=0.00791x elapsed=0:02:00.12    \nframe=   60 fps=0.5 q=37.2 size=     768KiB time=00:00:00.96 bitrate=6508.8kbits/s speed=0.00801x elapsed=0:02:00.65    \nframe=   60 fps=0.5 q=37.2 size=     768KiB time=00:00:00.96 bitrate=6508.8kbits/s speed=0.00798x elapsed=0:02:01.17    \nframe=   60 fps=0.5 q=37.2 size=     768KiB time=00:00:00.96 bitrate=6508.8kbits/s speed=0.00794x elapsed=0:02:01.68    \nframe=   61 fps=0.5 q=39.0 size=     768KiB time=00:00:00.98 bitrate=6398.5kbits/s speed=0.00805x elapsed=0:02:02.22    \nframe=   62 fps=0.5 q=38.9 size=     768KiB time=00:00:01.00 bitrate=6291.8kbits/s speed=0.00815x elapsed=0:02:02.74    \nframe=   64 fps=0.5 q=37.1 size=     768KiB time=00:00:01.03 bitrate=6088.8kbits/s speed=0.00838x elapsed=0:02:03.25    \nframe=   64 fps=0.5 q=37.1 size=     768KiB time=00:00:01.03 bitrate=6088.8kbits/s speed=0.00835x elapsed=0:02:03.77    \nframe=   65 fps=0.5 q=38.9 size=     768KiB time=00:00:01.05 bitrate=5992.2kbits/s speed=0.00845x elapsed=0:02:04.31    \nframe=   65 fps=0.5 q=38.9 size=     768KiB time=00:00:01.05 bitrate=5992.2kbits/s speed=0.00841x elapsed=0:02:04.82    \nframe=   67 fps=0.5 q=32.4 size=     768KiB time=00:00:01.06 bitrate=5898.6kbits/s speed=0.00851x elapsed=0:02:05.34    \nframe=   67 fps=0.5 q=32.4 size=     768KiB time=00:00:01.08 bitrate=5807.8kbits/s speed=0.0086x elapsed=0:02:05.90    \nframe=   67 fps=0.5 q=32.4 size=     768KiB time=00:00:01.08 bitrate=5807.8kbits/s speed=0.00857x elapsed=0:02:06.41    \nframe=   67 fps=0.5 q=32.4 size=     768KiB time=00:00:01.08 bitrate=5807.8kbits/s speed=0.00853x elapsed=0:02:06.93    \nframe=   68 fps=0.5 q=36.9 size=    1024KiB time=00:00:01.10 bitrate=7626.3kbits/s speed=0.00863x elapsed=0:02:07.45    \nframe=   70 fps=0.5 q=32.2 size=    1024KiB time=00:00:01.13 bitrate=7402.0kbits/s speed=0.00886x elapsed=0:02:07.98    \nframe=   71 fps=0.6 q=37.2 size=    1024KiB time=00:00:01.15 bitrate=7294.7kbits/s speed=0.00895x elapsed=0:02:08.48    \nframe=   71 fps=0.6 q=37.2 size=    1024KiB time=00:00:01.15 bitrate=7294.7kbits/s speed=0.00891x elapsed=0:02:09.01    \nframe=   71 fps=0.5 q=37.2 size=    1024KiB time=00:00:01.15 bitrate=7294.7kbits/s speed=0.00888x elapsed=0:02:09.54    \nframe=   71 fps=0.5 q=37.2 size=    1024KiB time=00:00:01.15 bitrate=7294.7kbits/s speed=0.00884x elapsed=0:02:10.07    \nframe=   71 fps=0.5 q=37.2 size=    1024KiB time=00:00:01.15 bitrate=7294.7kbits/s speed=0.00881x elapsed=0:02:10.59    \nframe=   71 fps=0.5 q=37.2 size=    1024KiB time=00:00:01.15 bitrate=7294.7kbits/s speed=0.00877x elapsed=0:02:11.11    \nframe=   72 fps=0.5 q=38.9 size=    1024KiB time=00:00:01.16 bitrate=7190.5kbits/s speed=0.00886x elapsed=0:02:11.63    \nframe=   73 fps=0.6 q=38.9 size=    1024KiB time=00:00:01.18 bitrate=7089.3kbits/s speed=0.00895x elapsed=0:02:12.14    \nframe=   74 fps=0.6 q=32.2 size=    1024KiB time=00:00:01.18 bitrate=7089.3kbits/s speed=0.00892x elapsed=0:02:12.67    \nframe=   75 fps=0.6 q=36.8 size=    1024KiB time=00:00:01.21 bitrate=6895.0kbits/s speed=0.00913x elapsed=0:02:13.20    \nframe=   75 fps=0.6 q=36.8 size=    1024KiB time=00:00:01.21 bitrate=6895.0kbits/s speed=0.0091x elapsed=0:02:13.72    \nframe=   75 fps=0.6 q=36.8 size=    1024KiB time=00:00:01.21 bitrate=6895.0kbits/s speed=0.00906x elapsed=0:02:14.26    \nframe=   75 fps=0.6 q=36.8 size=    1024KiB time=00:00:01.21 bitrate=6895.0kbits/s speed=0.00903x elapsed=0:02:14.78    \nframe=   76 fps=0.6 q=38.9 size=    1024KiB time=00:00:01.23 bitrate=6801.9kbits/s speed=0.00912x elapsed=0:02:15.30    \nframe=   76 fps=0.6 q=38.9 size=    1024KiB time=00:00:01.23 bitrate=6801.9kbits/s speed=0.00908x elapsed=0:02:15.82    \nframe=   78 fps=0.6 q=32.0 size=    1024KiB time=00:00:01.26 bitrate=6622.9kbits/s speed=0.00929x elapsed=0:02:16.37    \nframe=   78 fps=0.6 q=32.0 size=    1024KiB time=00:00:01.26 bitrate=6622.9kbits/s speed=0.00925x elapsed=0:02:16.89    \nframe=   78 fps=0.6 q=32.0 size=    1024KiB time=00:00:01.26 bitrate=6622.9kbits/s speed=0.00922x elapsed=0:02:17.41    \nframe=   78 fps=0.6 q=32.0 size=    1024KiB time=00:00:01.26 bitrate=6622.9kbits/s speed=0.00918x elapsed=0:02:17.92    \nframe=   78 fps=0.6 q=32.0 size=    1024KiB time=00:00:01.26 bitrate=6622.9kbits/s speed=0.00915x elapsed=0:02:18.45    \nframe=   78 fps=0.6 q=32.0 size=    1024KiB time=00:00:01.26 bitrate=6622.9kbits/s speed=0.00911x elapsed=0:02:18.97    \nframe=   79 fps=0.6 q=36.7 size=    1024KiB time=00:00:01.28 bitrate=6536.9kbits/s speed=0.0092x elapsed=0:02:19.49    \nframe=   79 fps=0.6 q=36.7 size=    1024KiB time=00:00:01.28 bitrate=6536.9kbits/s speed=0.00917x elapsed=0:02:20.00    \nframe=   81 fps=0.6 q=32.2 size=    1024KiB time=00:00:01.31 bitrate=6371.4kbits/s speed=0.00937x elapsed=0:02:20.52    \nframe=   81 fps=0.6 q=32.2 size=    1024KiB time=00:00:01.31 bitrate=6371.4kbits/s speed=0.00934x elapsed=0:02:21.04    \nframe=   82 fps=0.6 q=36.9 size=    1024KiB time=00:00:01.33 bitrate=6291.7kbits/s speed=0.00942x elapsed=0:02:21.55    \nframe=   82 fps=0.6 q=36.9 size=    1024KiB time=00:00:01.33 bitrate=6291.7kbits/s speed=0.00938x elapsed=0:02:22.07    \nframe=   82 fps=0.6 q=36.9 size=    1024KiB time=00:00:01.33 bitrate=6291.7kbits/s speed=0.00935x elapsed=0:02:22.59    \nframe=   82 fps=0.6 q=36.9 size=    1024KiB time=00:00:01.33 bitrate=6291.7kbits/s speed=0.00932x elapsed=0:02:23.12    \nframe=   83 fps=0.6 q=38.1 size=    1024KiB time=00:00:01.35 bitrate=6214.0kbits/s speed=0.0094x elapsed=0:02:23.63    \nframe=   85 fps=0.6 q=32.0 size=    1024KiB time=00:00:01.38 bitrate=6064.3kbits/s speed=0.0096x elapsed=0:02:24.14    \nframe=   86 fps=0.6 q=36.7 size=    1280KiB time=00:00:01.40 bitrate=7490.1kbits/s speed=0.00968x elapsed=0:02:24.66    \nframe=   86 fps=0.6 q=36.7 size=    1280KiB time=00:00:01.40 bitrate=7490.1kbits/s speed=0.00964x elapsed=0:02:25.19    \nframe=   87 fps=0.6 q=38.0 size=    1280KiB time=00:00:01.41 bitrate=7402.0kbits/s speed=0.00972x elapsed=0:02:25.70    \nframe=   88 fps=0.6 q=38.0 size=    1280KiB time=00:00:01.43 bitrate=7315.9kbits/s speed=0.0098x elapsed=0:02:26.22    \nframe=   89 fps=0.6 q=31.7 size=    1280KiB time=00:00:01.45 bitrate=7231.8kbits/s speed=0.00988x elapsed=0:02:26.75    \nframe=   89 fps=0.6 q=31.7 size=    1280KiB time=00:00:01.45 bitrate=7231.8kbits/s speed=0.00985x elapsed=0:02:27.25    \nframe=   89 fps=0.6 q=31.7 size=    1280KiB time=00:00:01.45 bitrate=7231.8kbits/s speed=0.00981x elapsed=0:02:27.77    \nframe=   90 fps=0.6 q=36.2 size=    1280KiB time=00:00:01.46 bitrate=7149.6kbits/s speed=0.00989x elapsed=0:02:28.28    \nframe=   91 fps=0.6 q=38.0 size=    1280KiB time=00:00:01.48 bitrate=7069.3kbits/s speed=0.00997x elapsed=0:02:28.81    \nframe=   93 fps=0.6 q=36.4 size=    1280KiB time=00:00:01.51 bitrate=6913.9kbits/s speed=0.0102x elapsed=0:02:29.34    \nframe=   93 fps=0.6 q=36.4 size=    1280KiB time=00:00:01.51 bitrate=6913.9kbits/s speed=0.0101x elapsed=0:02:29.85    \nframe=   93 fps=0.6 q=36.4 size=    1280KiB time=00:00:01.51 bitrate=6913.9kbits/s speed=0.0101x elapsed=0:02:30.39    \nframe=   93 fps=0.6 q=36.4 size=    1280KiB time=00:00:01.51 bitrate=6913.9kbits/s speed=0.01x elapsed=0:02:30.93    \nframe=   94 fps=0.6 q=37.8 size=    1280KiB time=00:00:01.53 bitrate=6838.8kbits/s speed=0.0101x elapsed=0:02:31.44    \nframe=   94 fps=0.6 q=37.8 size=    1280KiB time=00:00:01.53 bitrate=6838.8kbits/s speed=0.0101x elapsed=0:02:31.96    \nframe=   95 fps=0.6 q=37.2 size=    1280KiB time=00:00:01.55 bitrate=6765.2kbits/s speed=0.0102x elapsed=0:02:32.48    \nframe=   97 fps=0.6 q=36.3 size=    1280KiB time=00:00:01.58 bitrate=6622.8kbits/s speed=0.0103x elapsed=0:02:32.99    \nframe=   97 fps=0.6 q=36.3 size=    1280KiB time=00:00:01.58 bitrate=6622.8kbits/s speed=0.0103x elapsed=0:02:33.51    \nframe=   97 fps=0.6 q=36.3 size=    1280KiB time=00:00:01.58 bitrate=6622.8kbits/s speed=0.0103x elapsed=0:02:34.02    \nframe=   98 fps=0.6 q=37.9 size=    1280KiB time=00:00:01.60 bitrate=6553.8kbits/s speed=0.0104x elapsed=0:02:34.54    \nframe=   99 fps=0.6 q=37.0 size=    1280KiB time=00:00:01.61 bitrate=6486.3kbits/s speed=0.0104x elapsed=0:02:35.05    \nframe=  100 fps=0.6 q=31.7 size=    1280KiB time=00:00:01.63 bitrate=6420.1kbits/s speed=0.0105x elapsed=0:02:35.57    \nframe=  101 fps=0.6 q=36.3 size=    1536KiB time=00:00:01.65 bitrate=7626.2kbits/s speed=0.0106x elapsed=0:02:36.09    \nframe=  101 fps=0.6 q=36.3 size=    1536KiB time=00:00:01.65 bitrate=7626.2kbits/s speed=0.0105x elapsed=0:02:36.63    \nframe=  101 fps=0.6 q=36.3 size=    1536KiB time=00:00:01.65 bitrate=7626.2kbits/s speed=0.0105x elapsed=0:02:37.16    \nframe=  101 fps=0.6 q=36.3 size=    1536KiB time=00:00:01.65 bitrate=7626.2kbits/s speed=0.0105x elapsed=0:02:37.71    \nframe=  101 fps=0.6 q=36.3 size=    1536KiB time=00:00:01.65 bitrate=7626.2kbits/s speed=0.0104x elapsed=0:02:38.24    \nframe=  101 fps=0.6 q=36.3 size=    1536KiB time=00:00:01.65 bitrate=7626.2kbits/s speed=0.0104x elapsed=0:02:38.78    \nframe=  101 fps=0.6 q=36.3 size=    1536KiB time=00:00:01.65 bitrate=7626.2kbits/s speed=0.0104x elapsed=0:02:39.35    \nframe=  101 fps=0.6 q=36.3 size=    1536KiB time=00:00:01.65 bitrate=7626.2kbits/s speed=0.0103x elapsed=0:02:39.90    \nframe=  101 fps=0.6 q=36.3 size=    1536KiB time=00:00:01.65 bitrate=7626.2kbits/s speed=0.0103x elapsed=0:02:40.47    \nframe=  101 fps=0.6 q=36.3 size=    1536KiB time=00:00:01.65 bitrate=7626.2kbits/s speed=0.0102x elapsed=0:02:41.04    \nframe=  101 fps=0.6 q=36.3 size=    1536KiB time=00:00:01.65 bitrate=7626.2kbits/s speed=0.0102x elapsed=0:02:41.59    \nframe=  102 fps=0.6 q=37.9 size=    1536KiB time=00:00:01.66 bitrate=7550.0kbits/s speed=0.0103x elapsed=0:02:42.14    \nframe=  102 fps=0.6 q=37.9 size=    1536KiB time=00:00:01.66 bitrate=7550.0kbits/s speed=0.0102x elapsed=0:02:42.66    \nframe=  103 fps=0.6 q=37.0 size=    1536KiB time=00:00:01.66 bitrate=7550.0kbits/s speed=0.0102x elapsed=0:02:43.19    \nframe=  104 fps=0.6 q=31.4 size=    1536KiB time=00:00:01.70 bitrate=7401.9kbits/s speed=0.0104x elapsed=0:02:43.73    \nframe=  105 fps=0.6 q=36.1 size=    1536KiB time=00:00:01.71 bitrate=7330.1kbits/s speed=0.0105x elapsed=0:02:44.27    \nframe=  105 fps=0.6 q=36.1 size=    1536KiB time=00:00:01.71 bitrate=7330.1kbits/s speed=0.0104x elapsed=0:02:44.79    \nframe=  105 fps=0.6 q=36.1 size=    1536KiB time=00:00:01.71 bitrate=7330.1kbits/s speed=0.0104x elapsed=0:02:45.30    \nframe=  105 fps=0.6 q=36.1 size=    1536KiB time=00:00:01.71 bitrate=7330.1kbits/s speed=0.0104x elapsed=0:02:45.81    \nframe=  105 fps=0.6 q=36.1 size=    1536KiB time=00:00:01.71 bitrate=7330.1kbits/s speed=0.0103x elapsed=0:02:46.34    \nframe=  106 fps=0.6 q=37.7 size=    1536KiB time=00:00:01.73 bitrate=7259.6kbits/s speed=0.0104x elapsed=0:02:46.86    \nframe=  106 fps=0.6 q=37.7 size=    1536KiB time=00:00:01.73 bitrate=7259.6kbits/s speed=0.0104x elapsed=0:02:47.38    \nframe=  107 fps=0.6 q=36.9 size=    1536KiB time=00:00:01.75 bitrate=7190.4kbits/s speed=0.0104x elapsed=0:02:47.90    \nframe=  109 fps=0.6 q=36.0 size=    1536KiB time=00:00:01.78 bitrate=7056.0kbits/s speed=0.0106x elapsed=0:02:48.42    \nframe=  109 fps=0.6 q=36.0 size=    1536KiB time=00:00:01.78 bitrate=7056.0kbits/s speed=0.0106x elapsed=0:02:48.94    \nframe=  109 fps=0.6 q=36.0 size=    1536KiB time=00:00:01.78 bitrate=7056.0kbits/s speed=0.0105x elapsed=0:02:49.45    \nframe=  109 fps=0.6 q=36.0 size=    1536KiB time=00:00:01.78 bitrate=7056.0kbits/s speed=0.0105x elapsed=0:02:49.98    \nframe=  111 fps=0.7 q=37.0 size=    1536KiB time=00:00:01.81 bitrate=6926.6kbits/s speed=0.0107x elapsed=0:02:50.50    \nframe=  112 fps=0.7 q=31.3 size=    1536KiB time=00:00:01.83 bitrate=6863.6kbits/s speed=0.0107x elapsed=0:02:51.02    \nframe=  112 fps=0.7 q=31.3 size=    1536KiB time=00:00:01.83 bitrate=6863.6kbits/s speed=0.0107x elapsed=0:02:51.57    \nframe=  113 fps=0.7 q=35.9 size=    1536KiB time=00:00:01.85 bitrate=6801.8kbits/s speed=0.0107x elapsed=0:02:52.10    \nframe=  113 fps=0.7 q=35.9 size=    1536KiB time=00:00:01.85 bitrate=6801.8kbits/s speed=0.0107x elapsed=0:02:52.61    \nframe=  113 fps=0.7 q=35.9 size=    1536KiB time=00:00:01.85 bitrate=6801.8kbits/s speed=0.0107x elapsed=0:02:53.13    \nframe=  113 fps=0.7 q=35.9 size=    1536KiB time=00:00:01.85 bitrate=6801.8kbits/s speed=0.0107x elapsed=0:02:53.67    \nframe=  114 fps=0.7 q=37.9 size=    1536KiB time=00:00:01.86 bitrate=6741.0kbits/s speed=0.0107x elapsed=0:02:54.17    \nframe=  116 fps=0.7 q=31.1 size=    1536KiB time=00:00:01.90 bitrate=6622.8kbits/s speed=0.0109x elapsed=0:02:54.69    \nframe=  117 fps=0.7 q=37.4 size=    1792KiB time=00:00:01.91 bitrate=7659.3kbits/s speed=0.0109x elapsed=0:02:55.23    \nframe=  118 fps=0.7 q=37.8 size=    1792KiB time=00:00:01.93 bitrate=7593.3kbits/s speed=0.011x elapsed=0:02:55.75    \nframe=  118 fps=0.7 q=37.8 size=    1792KiB time=00:00:01.93 bitrate=7593.3kbits/s speed=0.011x elapsed=0:02:56.27    \nframe=  118 fps=0.7 q=37.8 size=    1792KiB time=00:00:01.93 bitrate=7593.3kbits/s speed=0.0109x elapsed=0:02:56.78    \nframe=  119 fps=0.7 q=37.4 size=    1792KiB time=00:00:01.95 bitrate=7528.4kbits/s speed=0.011x elapsed=0:02:57.30    \nframe=  121 fps=0.7 q=31.2 size=    1792KiB time=00:00:01.98 bitrate=7401.9kbits/s speed=0.0112x elapsed=0:02:57.82    \nframe=  122 fps=0.7 q=36.2 size=    1792KiB time=00:00:02.00 bitrate=7340.2kbits/s speed=0.0112x elapsed=0:02:58.33    \nframe=  122 fps=0.7 q=36.2 size=    1792KiB time=00:00:02.00 bitrate=7340.2kbits/s speed=0.0112x elapsed=0:02:58.87    \nframe=  123 fps=0.7 q=38.0 size=    1792KiB time=00:00:02.01 bitrate=7279.5kbits/s speed=0.0112x elapsed=0:02:59.39    \nframe=  124 fps=0.7 q=37.9 size=    1792KiB time=00:00:02.03 bitrate=7219.9kbits/s speed=0.0113x elapsed=0:02:59.91    \nframe=  125 fps=0.7 q=31.2 size=    1792KiB time=00:00:02.05 bitrate=7161.2kbits/s speed=0.0114x elapsed=0:03:00.43    \nframe=  126 fps=0.7 q=35.9 size=    1792KiB time=00:00:02.06 bitrate=7103.4kbits/s speed=0.0114x elapsed=0:03:00.94    \nframe=  126 fps=0.7 q=35.9 size=    1792KiB time=00:00:02.06 bitrate=7103.4kbits/s speed=0.0114x elapsed=0:03:01.46    \nframe=  127 fps=0.7 q=37.8 size=    1792KiB time=00:00:02.08 bitrate=7046.6kbits/s speed=0.0114x elapsed=0:03:01.99    \nframe=  128 fps=0.7 q=37.9 size=    1792KiB time=00:00:02.10 bitrate=6990.7kbits/s speed=0.0115x elapsed=0:03:02.52    \nframe=  129 fps=0.7 q=31.4 size=    1792KiB time=00:00:02.11 bitrate=6935.6kbits/s speed=0.0116x elapsed=0:03:03.04    \nframe=  130 fps=0.7 q=35.8 size=    1792KiB time=00:00:02.13 bitrate=6881.4kbits/s speed=0.0116x elapsed=0:03:03.57    \nframe=  130 fps=0.7 q=35.8 size=    1792KiB time=00:00:02.13 bitrate=6881.4kbits/s speed=0.0116x elapsed=0:03:04.08    \nframe=  131 fps=0.7 q=37.9 size=    1792KiB time=00:00:02.15 bitrate=6828.1kbits/s speed=0.0116x elapsed=0:03:04.59    \nframe=  132 fps=0.7 q=36.9 size=    1792KiB time=00:00:02.16 bitrate=6775.6kbits/s speed=0.0117x elapsed=0:03:05.11    \nframe=  133 fps=0.7 q=30.9 size=    1792KiB time=00:00:02.18 bitrate=6723.9kbits/s speed=0.0118x elapsed=0:03:05.63    \nframe=  133 fps=0.7 q=30.9 size=    1792KiB time=00:00:02.18 bitrate=6723.9kbits/s speed=0.0117x elapsed=0:03:06.16    \nframe=  134 fps=0.7 q=35.2 size=    2048KiB time=00:00:02.20 bitrate=7626.2kbits/s speed=0.0118x elapsed=0:03:06.67    \nframe=  135 fps=0.7 q=37.2 size=    2048KiB time=00:00:02.21 bitrate=7568.8kbits/s speed=0.0118x elapsed=0:03:07.19    \nframe=  137 fps=0.7 q=35.8 size=    2048KiB time=00:00:02.25 bitrate=7456.7kbits/s speed=0.012x elapsed=0:03:07.72    \nframe=  137 fps=0.7 q=35.8 size=    2048KiB time=00:00:02.25 bitrate=7456.7kbits/s speed=0.012x elapsed=0:03:08.24    \nframe=  139 fps=0.7 q=37.8 size=    2048KiB time=00:00:02.28 bitrate=7347.8kbits/s speed=0.0121x elapsed=0:03:08.76    \nframe=  139 fps=0.7 q=37.8 size=    2048KiB time=00:00:02.28 bitrate=7347.8kbits/s speed=0.0121x elapsed=0:03:09.28    \nframe=  141 fps=0.7 q=35.8 size=    2048KiB time=00:00:02.31 bitrate=7242.1kbits/s speed=0.0122x elapsed=0:03:09.78    \nframe=  141 fps=0.7 q=35.8 size=    2048KiB time=00:00:02.31 bitrate=7242.1kbits/s speed=0.0122x elapsed=0:03:10.30    \nframe=  142 fps=0.7 q=37.9 size=    2048KiB time=00:00:02.33 bitrate=7190.4kbits/s speed=0.0122x elapsed=0:03:10.81    \nframe=  143 fps=0.7 q=37.2 size=    2048KiB time=00:00:02.35 bitrate=7139.4kbits/s speed=0.0123x elapsed=0:03:11.33    \nframe=  145 fps=0.8 q=35.9 size=    2048KiB time=00:00:02.38 bitrate=7039.5kbits/s speed=0.0124x elapsed=0:03:11.85    \nframe=  145 fps=0.8 q=35.9 size=    2048KiB time=00:00:02.38 bitrate=7039.5kbits/s speed=0.0124x elapsed=0:03:12.37    \nframe=  146 fps=0.8 q=37.8 size=    2048KiB time=00:00:02.40 bitrate=6990.7kbits/s speed=0.0124x elapsed=0:03:12.90    \nframe=  148 fps=0.8 q=30.9 size=    2048KiB time=00:00:02.43 bitrate=6894.9kbits/s speed=0.0126x elapsed=0:03:13.43    \nframe=  148 fps=0.8 q=30.9 size=    2048KiB time=00:00:02.43 bitrate=6894.9kbits/s speed=0.0125x elapsed=0:03:13.96    \nframe=  148 fps=0.8 q=30.9 size=    2048KiB time=00:00:02.43 bitrate=6894.9kbits/s speed=0.0125x elapsed=0:03:14.49    \nframe=  148 fps=0.8 q=30.9 size=    2048KiB time=00:00:02.43 bitrate=6894.9kbits/s speed=0.0125x elapsed=0:03:15.02    \nframe=  148 fps=0.8 q=30.9 size=    2048KiB time=00:00:02.43 bitrate=6894.9kbits/s speed=0.0124x elapsed=0:03:15.54    \nframe=  148 fps=0.8 q=30.9 size=    2048KiB time=00:00:02.43 bitrate=6894.9kbits/s speed=0.0124x elapsed=0:03:16.06    \nframe=  150 fps=0.8 q=37.1 size=    2304KiB time=00:00:02.46 bitrate=7651.9kbits/s speed=0.0125x elapsed=0:03:16.58    \nframe=  150 fps=0.8 q=37.1 size=    2304KiB time=00:00:02.46 bitrate=7651.9kbits/s speed=0.0125x elapsed=0:03:17.11    \nframe=  152 fps=0.8 q=35.4 size=    2304KiB time=00:00:02.50 bitrate=7549.9kbits/s speed=0.0126x elapsed=0:03:17.65    \nframe=  152 fps=0.8 q=35.4 size=    2304KiB time=00:00:02.50 bitrate=7549.9kbits/s speed=0.0126x elapsed=0:03:18.19    \nframe=  152 fps=0.8 q=35.4 size=    2304KiB time=00:00:02.50 bitrate=7549.9kbits/s speed=0.0126x elapsed=0:03:18.72    \nframe=  152 fps=0.8 q=35.4 size=    2304KiB time=00:00:02.50 bitrate=7549.9kbits/s speed=0.0125x elapsed=0:03:19.24    \nframe=  153 fps=0.8 q=37.2 size=    2304KiB time=00:00:02.51 bitrate=7499.9kbits/s speed=0.0126x elapsed=0:03:19.76    \nframe=  154 fps=0.8 q=37.0 size=    2304KiB time=00:00:02.53 bitrate=7450.5kbits/s speed=0.0126x elapsed=0:03:20.31    \nframe=  156 fps=0.8 q=35.7 size=    2304KiB time=00:00:02.56 bitrate=7353.8kbits/s speed=0.0128x elapsed=0:03:20.84    \nframe=  156 fps=0.8 q=35.7 size=    2304KiB time=00:00:02.56 bitrate=7353.8kbits/s speed=0.0127x elapsed=0:03:21.35    \nframe=  156 fps=0.8 q=35.7 size=    2304KiB time=00:00:02.56 bitrate=7353.8kbits/s speed=0.0127x elapsed=0:03:21.89    \nframe=  156 fps=0.8 q=35.7 size=    2304KiB time=00:00:02.56 bitrate=7353.8kbits/s speed=0.0127x elapsed=0:03:22.41    \nframe=  156 fps=0.8 q=35.7 size=    2304KiB time=00:00:02.56 bitrate=7353.8kbits/s speed=0.0126x elapsed=0:03:22.93    \nframe=  158 fps=0.8 q=37.0 size=    2304KiB time=00:00:02.60 bitrate=7259.5kbits/s speed=0.0128x elapsed=0:03:23.46    \nframe=  158 fps=0.8 q=37.0 size=    2304KiB time=00:00:02.60 bitrate=7259.5kbits/s speed=0.0127x elapsed=0:03:23.98    \nframe=  158 fps=0.8 q=37.0 size=    2304KiB time=00:00:02.60 bitrate=7259.5kbits/s speed=0.0127x elapsed=0:03:24.52    \nframe=  158 fps=0.8 q=37.0 size=    2304KiB time=00:00:02.60 bitrate=7259.5kbits/s speed=0.0127x elapsed=0:03:25.07    \nframe=  159 fps=0.8 q=31.1 size=    2304KiB time=00:00:02.61 bitrate=7213.3kbits/s speed=0.0127x elapsed=0:03:25.64    \nframe=  160 fps=0.8 q=35.6 size=    2304KiB time=00:00:02.63 bitrate=7167.6kbits/s speed=0.0128x elapsed=0:03:26.23    \nframe=  160 fps=0.8 q=35.6 size=    2304KiB time=00:00:02.63 bitrate=7167.6kbits/s speed=0.0127x elapsed=0:03:26.78    \nframe=  160 fps=0.8 q=35.6 size=    2304KiB time=00:00:02.63 bitrate=7167.6kbits/s speed=0.0127x elapsed=0:03:27.30    \nframe=  161 fps=0.8 q=37.2 size=    2304KiB time=00:00:02.65 bitrate=7122.5kbits/s speed=0.0128x elapsed=0:03:27.83    \nframe=  162 fps=0.8 q=36.9 size=    2304KiB time=00:00:02.66 bitrate=7078.0kbits/s speed=0.0128x elapsed=0:03:28.39    \nframe=  163 fps=0.8 q=30.9 size=    2304KiB time=00:00:02.68 bitrate=7034.1kbits/s speed=0.0128x elapsed=0:03:28.96    \nframe=  163 fps=0.8 q=30.9 size=    2304KiB time=00:00:02.68 bitrate=7034.1kbits/s speed=0.0128x elapsed=0:03:29.53    \nframe=  163 fps=0.8 q=30.9 size=    2304KiB time=00:00:02.68 bitrate=7034.1kbits/s speed=0.0128x elapsed=0:03:30.10    \nframe=  163 fps=0.8 q=30.9 size=    2304KiB time=00:00:02.68 bitrate=7034.1kbits/s speed=0.0127x elapsed=0:03:30.62    \nframe=  164 fps=0.8 q=35.0 size=    2304KiB time=00:00:02.70 bitrate=6990.6kbits/s speed=0.0128x elapsed=0:03:31.13    \nframe=  165 fps=0.8 q=37.1 size=    2304KiB time=00:00:02.71 bitrate=6947.7kbits/s speed=0.0128x elapsed=0:03:31.71    \nframe=  165 fps=0.8 q=37.1 size=    2304KiB time=00:00:02.71 bitrate=6947.7kbits/s speed=0.0128x elapsed=0:03:32.26    \nframe=  165 fps=0.8 q=37.1 size=    2304KiB time=00:00:02.71 bitrate=6947.7kbits/s speed=0.0128x elapsed=0:03:32.80    \nframe=  166 fps=0.8 q=30.8 size=    2304KiB time=00:00:02.73 bitrate=6905.4kbits/s speed=0.0128x elapsed=0:03:33.35    \nframe=  167 fps=0.8 q=35.4 size=    2560KiB time=00:00:02.75 bitrate=7626.1kbits/s speed=0.0129x elapsed=0:03:33.89    \nframe=  167 fps=0.8 q=35.4 size=    2560KiB time=00:00:02.75 bitrate=7626.1kbits/s speed=0.0128x elapsed=0:03:34.41    \nframe=  167 fps=0.8 q=35.4 size=    2560KiB time=00:00:02.75 bitrate=7626.1kbits/s speed=0.0128x elapsed=0:03:34.94    \nframe=  167 fps=0.8 q=35.4 size=    2560KiB time=00:00:02.75 bitrate=7626.1kbits/s speed=0.0128x elapsed=0:03:35.45    \nframe=  167 fps=0.8 q=35.4 size=    2560KiB time=00:00:02.75 bitrate=7626.1kbits/s speed=0.0127x elapsed=0:03:36.00    \nframe=  167 fps=0.8 q=35.4 size=    2560KiB time=00:00:02.75 bitrate=7626.1kbits/s speed=0.0127x elapsed=0:03:36.53    \nframe=  168 fps=0.8 q=37.1 size=    2560KiB time=00:00:02.76 bitrate=7580.2kbits/s speed=0.0127x elapsed=0:03:37.05    \nframe=  168 fps=0.8 q=37.1 size=    2560KiB time=00:00:02.76 bitrate=7580.2kbits/s speed=0.0127x elapsed=0:03:37.57    \nframe=  168 fps=0.8 q=37.1 size=    2560KiB time=00:00:02.76 bitrate=7580.2kbits/s speed=0.0127x elapsed=0:03:38.13    \nframe=  168 fps=0.8 q=37.1 size=    2560KiB time=00:00:02.76 bitrate=7580.2kbits/s speed=0.0127x elapsed=0:03:38.65    \nframe=  168 fps=0.8 q=37.1 size=    2560KiB time=00:00:02.76 bitrate=7580.2kbits/s speed=0.0126x elapsed=0:03:39.20    \nframe=  168 fps=0.8 q=37.1 size=    2560KiB time=00:00:02.76 bitrate=7580.2kbits/s speed=0.0126x elapsed=0:03:39.72    \nframe=  168 fps=0.8 q=37.1 size=    2560KiB time=00:00:02.76 bitrate=7580.2kbits/s speed=0.0126x elapsed=0:03:40.28    \nframe=  168 fps=0.8 q=37.1 size=    2560KiB time=00:00:02.76 bitrate=7580.2kbits/s speed=0.0125x elapsed=0:03:40.83    \nframe=  170 fps=0.8 q=31.1 size=    2560KiB time=00:00:02.80 bitrate=7490.0kbits/s speed=0.0126x elapsed=0:03:41.41    \nframe=  170 fps=0.8 q=31.1 size=    2560KiB time=00:00:02.80 bitrate=7490.0kbits/s speed=0.0126x elapsed=0:03:42.00    \nframe=  171 fps=0.8 q=35.7 size=    2560KiB time=00:00:02.81 bitrate=7445.6kbits/s speed=0.0127x elapsed=0:03:42.60    \nframe=  171 fps=0.8 q=35.7 size=    2560KiB time=00:00:02.81 bitrate=7445.6kbits/s speed=0.0126x elapsed=0:03:43.17    \nframe=  171 fps=0.8 q=35.7 size=    2560KiB time=00:00:02.81 bitrate=7445.6kbits/s speed=0.0126x elapsed=0:03:43.76    \nframe=  171 fps=0.8 q=35.7 size=    2560KiB time=00:00:02.81 bitrate=7445.6kbits/s speed=0.0126x elapsed=0:03:44.32    \nframe=  171 fps=0.8 q=35.7 size=    2560KiB time=00:00:02.81 bitrate=7445.6kbits/s speed=0.0125x elapsed=0:03:44.88    \nframe=  171 fps=0.8 q=35.7 size=    2560KiB time=00:00:02.81 bitrate=7445.6kbits/s speed=0.0125x elapsed=0:03:45.42    \nframe=  172 fps=0.8 q=37.9 size=    2560KiB time=00:00:02.83 bitrate=7401.8kbits/s speed=0.0125x elapsed=0:03:45.95    \nframe=  173 fps=0.8 q=37.2 size=    2560KiB time=00:00:02.85 bitrate=7358.6kbits/s speed=0.0126x elapsed=0:03:46.51    \nframe=  173 fps=0.8 q=37.2 size=    2560KiB time=00:00:02.85 bitrate=7358.6kbits/s speed=0.0125x elapsed=0:03:47.09    \nframe=  174 fps=0.8 q=31.0 size=    2560KiB time=00:00:02.86 bitrate=7315.8kbits/s speed=0.0126x elapsed=0:03:47.64    \nframe=  174 fps=0.8 q=31.0 size=    2560KiB time=00:00:02.86 bitrate=7315.8kbits/s speed=0.0126x elapsed=0:03:48.19    \nframe=  174 fps=0.8 q=31.0 size=    2560KiB time=00:00:02.86 bitrate=7315.8kbits/s speed=0.0125x elapsed=0:03:48.70    \nframe=  175 fps=0.8 q=35.0 size=    2560KiB time=00:00:02.88 bitrate=7273.5kbits/s speed=0.0126x elapsed=0:03:49.22    \nframe=  175 fps=0.8 q=35.0 size=    2560KiB time=00:00:02.88 bitrate=7273.5kbits/s speed=0.0126x elapsed=0:03:49.74    \nframe=  175 fps=0.8 q=35.0 size=    2560KiB time=00:00:02.88 bitrate=7273.5kbits/s speed=0.0125x elapsed=0:03:50.25    \nframe=  177 fps=0.8 q=30.7 size=    2560KiB time=00:00:02.91 bitrate=7190.4kbits/s speed=0.0126x elapsed=0:03:50.77    \nframe=  178 fps=0.8 q=35.3 size=    2560KiB time=00:00:02.93 bitrate=7149.5kbits/s speed=0.0127x elapsed=0:03:51.30    \nframe=  178 fps=0.8 q=35.3 size=    2560KiB time=00:00:02.93 bitrate=7149.5kbits/s speed=0.0127x elapsed=0:03:51.84    \nframe=  178 fps=0.8 q=35.3 size=    2560KiB time=00:00:02.93 bitrate=7149.5kbits/s speed=0.0126x elapsed=0:03:52.38    \nframe=  179 fps=0.8 q=37.0 size=    2560KiB time=00:00:02.95 bitrate=7109.1kbits/s speed=0.0127x elapsed=0:03:52.89    \nframe=  181 fps=0.8 q=30.9 size=    2560KiB time=00:00:02.98 bitrate=7029.7kbits/s speed=0.0128x elapsed=0:03:53.41    \nframe=  182 fps=0.8 q=35.5 size=    2816KiB time=00:00:03.00 bitrate=7689.7kbits/s speed=0.0128x elapsed=0:03:53.92    \nframe=  182 fps=0.8 q=35.5 size=    2816KiB time=00:00:03.00 bitrate=7689.7kbits/s speed=0.0128x elapsed=0:03:54.44    \nframe=  182 fps=0.8 q=35.5 size=    2816KiB time=00:00:03.00 bitrate=7689.7kbits/s speed=0.0128x elapsed=0:03:54.96    \nframe=  182 fps=0.8 q=35.5 size=    2816KiB time=00:00:03.00 bitrate=7689.7kbits/s speed=0.0127x elapsed=0:03:55.48    \nframe=  184 fps=0.8 q=37.0 size=    2816KiB time=00:00:03.03 bitrate=7605.2kbits/s speed=0.0129x elapsed=0:03:55.99    \nframe=  184 fps=0.8 q=37.0 size=    2816KiB time=00:00:03.03 bitrate=7605.2kbits/s speed=0.0128x elapsed=0:03:56.51    \nframe=  185 fps=0.8 q=31.0 size=    2816KiB time=00:00:03.05 bitrate=7563.6kbits/s speed=0.0129x elapsed=0:03:57.08    \nframe=  186 fps=0.8 q=35.7 size=    2816KiB time=00:00:03.06 bitrate=7522.5kbits/s speed=0.0129x elapsed=0:03:57.60    \nframe=  187 fps=0.8 q=37.8 size=    2816KiB time=00:00:03.08 bitrate=7481.8kbits/s speed=0.0129x elapsed=0:03:58.12    \nframe=  187 fps=0.8 q=37.8 size=    2816KiB time=00:00:03.08 bitrate=7481.8kbits/s speed=0.0129x elapsed=0:03:58.65    \nframe=  188 fps=0.8 q=36.9 size=    2816KiB time=00:00:03.10 bitrate=7441.6kbits/s speed=0.013x elapsed=0:03:59.17    \nframe=  188 fps=0.8 q=36.9 size=    2816KiB time=00:00:03.10 bitrate=7441.6kbits/s speed=0.0129x elapsed=0:03:59.72    \nframe=  189 fps=0.8 q=30.8 size=    2816KiB time=00:00:03.11 bitrate=7401.8kbits/s speed=0.013x elapsed=0:04:00.24    \nframe=  190 fps=0.8 q=35.2 size=    2816KiB time=00:00:03.13 bitrate=7362.5kbits/s speed=0.013x elapsed=0:04:00.77    \nframe=  190 fps=0.8 q=35.2 size=    2816KiB time=00:00:03.13 bitrate=7362.5kbits/s speed=0.013x elapsed=0:04:01.34    \nframe=  190 fps=0.8 q=35.2 size=    2816KiB time=00:00:03.13 bitrate=7362.5kbits/s speed=0.013x elapsed=0:04:01.89    \nframe=  191 fps=0.8 q=37.0 size=    2816KiB time=00:00:03.15 bitrate=7323.5kbits/s speed=0.013x elapsed=0:04:02.41    \nframe=  191 fps=0.8 q=37.0 size=    2816KiB time=00:00:03.15 bitrate=7323.5kbits/s speed=0.013x elapsed=0:04:02.94    \nframe=  191 fps=0.8 q=37.0 size=    2816KiB time=00:00:03.15 bitrate=7323.5kbits/s speed=0.0129x elapsed=0:04:03.46    \nframe=  193 fps=0.8 q=35.5 size=    2816KiB time=00:00:03.18 bitrate=7246.8kbits/s speed=0.013x elapsed=0:04:03.98    \nframe=  193 fps=0.8 q=35.5 size=    2816KiB time=00:00:03.18 bitrate=7246.8kbits/s speed=0.013x elapsed=0:04:04.51    \nframe=  193 fps=0.8 q=35.5 size=    2816KiB time=00:00:03.18 bitrate=7246.8kbits/s speed=0.013x elapsed=0:04:05.02    \nframe=  193 fps=0.8 q=35.5 size=    2816KiB time=00:00:03.18 bitrate=7246.8kbits/s speed=0.013x elapsed=0:04:05.57    \nframe=  193 fps=0.8 q=35.5 size=    2816KiB time=00:00:03.18 bitrate=7246.8kbits/s speed=0.0129x elapsed=0:04:06.11    \nframe=  193 fps=0.8 q=35.5 size=    2816KiB time=00:00:03.18 bitrate=7246.8kbits/s speed=0.0129x elapsed=0:04:06.63    \nframe=  193 fps=0.8 q=35.5 size=    2816KiB time=00:00:03.18 bitrate=7246.8kbits/s speed=0.0129x elapsed=0:04:07.17    \nframe=  195 fps=0.8 q=37.0 size=    2816KiB time=00:00:03.21 bitrate=7171.7kbits/s speed=0.013x elapsed=0:04:07.72    \nframe=  195 fps=0.8 q=37.0 size=    2816KiB time=00:00:03.21 bitrate=7171.7kbits/s speed=0.013x elapsed=0:04:08.27    \nframe=  195 fps=0.8 q=37.0 size=    2816KiB time=00:00:03.21 bitrate=7171.7kbits/s speed=0.0129x elapsed=0:04:08.84    \nframe=  197 fps=0.8 q=35.5 size=    3072KiB time=00:00:03.25 bitrate=7743.4kbits/s speed=0.013x elapsed=0:04:09.37    \nframe=  197 fps=0.8 q=35.5 size=    3072KiB time=00:00:03.25 bitrate=7743.4kbits/s speed=0.013x elapsed=0:04:09.89    \nframe=  197 fps=0.8 q=35.5 size=    3072KiB time=00:00:03.25 bitrate=7743.4kbits/s speed=0.013x elapsed=0:04:10.42    \nframe=  198 fps=0.8 q=37.9 size=    3072KiB time=00:00:03.25 bitrate=7743.4kbits/s speed=0.0129x elapsed=0:04:10.98    \nframe=  199 fps=0.8 q=37.1 size=    3072KiB time=00:00:03.28 bitrate=7664.8kbits/s speed=0.0131x elapsed=0:04:11.54    \nframe=  200 fps=0.8 q=30.8 size=    3072KiB time=00:00:03.30 bitrate=7626.1kbits/s speed=0.0131x elapsed=0:04:12.10    \nframe=  201 fps=0.8 q=35.8 size=    3072KiB time=00:00:03.31 bitrate=7587.8kbits/s speed=0.0131x elapsed=0:04:12.63    \nframe=  201 fps=0.8 q=35.8 size=    3072KiB time=00:00:03.31 bitrate=7587.8kbits/s speed=0.0131x elapsed=0:04:13.14    \nframe=  202 fps=0.8 q=37.1 size=    3072KiB time=00:00:03.33 bitrate=7549.9kbits/s speed=0.0131x elapsed=0:04:13.68    \nframe=  202 fps=0.8 q=37.1 size=    3072KiB time=00:00:03.33 bitrate=7549.9kbits/s speed=0.0131x elapsed=0:04:14.24    \nframe=  203 fps=0.8 q=37.0 size=    3072KiB time=00:00:03.35 bitrate=7512.3kbits/s speed=0.0131x elapsed=0:04:14.81    \nframe=  203 fps=0.8 q=37.0 size=    3072KiB time=00:00:03.35 bitrate=7512.3kbits/s speed=0.0131x elapsed=0:04:15.34    \nframe=  203 fps=0.8 q=37.0 size=    3072KiB time=00:00:03.35 bitrate=7512.3kbits/s speed=0.0131x elapsed=0:04:15.87    \nframe=  205 fps=0.8 q=35.5 size=    3072KiB time=00:00:03.38 bitrate=7438.3kbits/s speed=0.0132x elapsed=0:04:16.39    \nframe=  205 fps=0.8 q=35.5 size=    3072KiB time=00:00:03.38 bitrate=7438.3kbits/s speed=0.0132x elapsed=0:04:16.95    \nframe=  205 fps=0.8 q=35.5 size=    3072KiB time=00:00:03.38 bitrate=7438.3kbits/s speed=0.0131x elapsed=0:04:17.47    \nframe=  205 fps=0.8 q=35.5 size=    3072KiB time=00:00:03.38 bitrate=7438.3kbits/s speed=0.0131x elapsed=0:04:18.00    \nframe=  206 fps=0.8 q=37.1 size=    3072KiB time=00:00:03.40 bitrate=7401.8kbits/s speed=0.0132x elapsed=0:04:18.55    \nframe=  206 fps=0.8 q=37.1 size=    3072KiB time=00:00:03.40 bitrate=7401.8kbits/s speed=0.0131x elapsed=0:04:19.10    \nframe=  206 fps=0.8 q=37.1 size=    3072KiB time=00:00:03.40 bitrate=7401.8kbits/s speed=0.0131x elapsed=0:04:19.64    \nframe=  208 fps=0.8 q=30.7 size=    3072KiB time=00:00:03.43 bitrate=7330.0kbits/s speed=0.0132x elapsed=0:04:20.16    \nframe=  209 fps=0.8 q=35.5 size=    3072KiB time=00:00:03.45 bitrate=7294.5kbits/s speed=0.0132x elapsed=0:04:20.68    \nframe=  209 fps=0.8 q=35.5 size=    3072KiB time=00:00:03.45 bitrate=7294.5kbits/s speed=0.0132x elapsed=0:04:21.20    \nframe=  210 fps=0.8 q=36.9 size=    3072KiB time=00:00:03.46 bitrate=7259.5kbits/s speed=0.0132x elapsed=0:04:21.73    \nframe=  210 fps=0.8 q=36.9 size=    3072KiB time=00:00:03.46 bitrate=7259.5kbits/s speed=0.0132x elapsed=0:04:22.29    \nframe=  210 fps=0.8 q=36.9 size=    3072KiB time=00:00:03.46 bitrate=7259.5kbits/s speed=0.0132x elapsed=0:04:22.84    \nframe=  210 fps=0.8 q=36.9 size=    3072KiB time=00:00:03.46 bitrate=7259.5kbits/s speed=0.0132x elapsed=0:04:23.40    \nframe=  210 fps=0.8 q=36.9 size=    3072KiB time=00:00:03.46 bitrate=7259.5kbits/s speed=0.0131x elapsed=0:04:23.92    \nframe=  211 fps=0.8 q=37.0 size=    3072KiB time=00:00:03.48 bitrate=7224.7kbits/s speed=0.0132x elapsed=0:04:24.46    \nframe=  212 fps=0.8 q=30.5 size=    3072KiB time=00:00:03.50 bitrate=7190.3kbits/s speed=0.0132x elapsed=0:04:25.00    \nframe=  213 fps=0.8 q=37.9 size=    3328KiB time=00:00:03.51 bitrate=7752.6kbits/s speed=0.0132x elapsed=0:04:25.56    \nframe=  213 fps=0.8 q=37.9 size=    3328KiB time=00:00:03.51 bitrate=7752.6kbits/s speed=0.0132x elapsed=0:04:26.09    \nframe=  214 fps=0.8 q=30.6 size=    3328KiB time=00:00:03.53 bitrate=7716.0kbits/s speed=0.0133x elapsed=0:04:26.64    \nframe=  215 fps=0.8 q=35.4 size=    3328KiB time=00:00:03.55 bitrate=7679.8kbits/s speed=0.0133x elapsed=0:04:27.18    \nframe=  215 fps=0.8 q=35.4 size=    3328KiB time=00:00:03.55 bitrate=7679.8kbits/s speed=0.0133x elapsed=0:04:27.71    \nframe=  215 fps=0.8 q=35.4 size=    3328KiB time=00:00:03.55 bitrate=7679.8kbits/s speed=0.0132x elapsed=0:04:28.23    \nframe=  217 fps=0.8 q=36.9 size=    3328KiB time=00:00:03.58 bitrate=7608.4kbits/s speed=0.0133x elapsed=0:04:28.82    \nframe=  217 fps=0.8 q=36.9 size=    3328KiB time=00:00:03.58 bitrate=7608.4kbits/s speed=0.0133x elapsed=0:04:29.35    \nframe=  217 fps=0.8 q=36.9 size=    3328KiB time=00:00:03.58 bitrate=7608.4kbits/s speed=0.0133x elapsed=0:04:29.91    \nframe=  217 fps=0.8 q=36.9 size=    3328KiB time=00:00:03.58 bitrate=7608.4kbits/s speed=0.0133x elapsed=0:04:30.43    \nframe=  217 fps=0.8 q=36.9 size=    3328KiB time=00:00:03.58 bitrate=7608.4kbits/s speed=0.0132x elapsed=0:04:30.96    \nframe=  219 fps=0.8 q=35.0 size=    3328KiB time=00:00:03.60 bitrate=7573.1kbits/s speed=0.0133x elapsed=0:04:31.48    \nframe=  219 fps=0.8 q=35.0 size=    3328KiB time=00:00:03.61 bitrate=7538.2kbits/s speed=0.0133x elapsed=0:04:32.00    \nframe=  219 fps=0.8 q=35.0 size=    3328KiB time=00:00:03.61 bitrate=7538.2kbits/s speed=0.0133x elapsed=0:04:32.52    \nframe=  219 fps=0.8 q=35.0 size=    3328KiB time=00:00:03.61 bitrate=7538.2kbits/s speed=0.0132x elapsed=0:04:33.05    \nframe=  219 fps=0.8 q=35.0 size=    3328KiB time=00:00:03.61 bitrate=7538.2kbits/s speed=0.0132x elapsed=0:04:33.60    \nframe=  220 fps=0.8 q=37.0 size=    3328KiB time=00:00:03.63 bitrate=7503.7kbits/s speed=0.0133x elapsed=0:04:34.11    \nframe=  222 fps=0.8 q=30.6 size=    3328KiB time=00:00:03.66 bitrate=7435.5kbits/s speed=0.0134x elapsed=0:04:34.63    \nframe=  222 fps=0.8 q=30.6 size=    3328KiB time=00:00:03.66 bitrate=7435.5kbits/s speed=0.0133x elapsed=0:04:35.16    \nframe=  223 fps=0.8 q=35.3 size=    3328KiB time=00:00:03.68 bitrate=7401.8kbits/s speed=0.0134x elapsed=0:04:35.71    \nframe=  223 fps=0.8 q=35.3 size=    3328KiB time=00:00:03.68 bitrate=7401.8kbits/s speed=0.0133x elapsed=0:04:36.24    \nframe=  223 fps=0.8 q=35.3 size=    3328KiB time=00:00:03.68 bitrate=7401.8kbits/s speed=0.0133x elapsed=0:04:36.79    \nframe=  223 fps=0.8 q=35.3 size=    3328KiB time=00:00:03.68 bitrate=7401.8kbits/s speed=0.0133x elapsed=0:04:37.34    \nframe=  223 fps=0.8 q=35.3 size=    3328KiB time=00:00:03.68 bitrate=7401.8kbits/s speed=0.0133x elapsed=0:04:37.93    \nframe=  223 fps=0.8 q=35.3 size=    3328KiB time=00:00:03.68 bitrate=7401.8kbits/s speed=0.0132x elapsed=0:04:38.53    \nframe=  223 fps=0.8 q=35.3 size=    3328KiB time=00:00:03.68 bitrate=7401.8kbits/s speed=0.0132x elapsed=0:04:39.12    \nframe=  223 fps=0.8 q=35.3 size=    3328KiB time=00:00:03.68 bitrate=7401.8kbits/s speed=0.0132x elapsed=0:04:39.72    \nframe=  223 fps=0.8 q=35.3 size=    3328KiB time=00:00:03.68 bitrate=7401.8kbits/s speed=0.0131x elapsed=0:04:40.25    \nframe=  223 fps=0.8 q=35.3 size=    3328KiB time=00:00:03.68 bitrate=7401.8kbits/s speed=0.0131x elapsed=0:04:40.82    \nframe=  224 fps=0.8 q=36.9 size=    3328KiB time=00:00:03.70 bitrate=7368.5kbits/s speed=0.0131x elapsed=0:04:41.38    \nframe=  225 fps=0.8 q=36.9 size=    3328KiB time=00:00:03.71 bitrate=7335.4kbits/s speed=0.0132x elapsed=0:04:41.92    \nframe=  225 fps=0.8 q=36.9 size=    3328KiB time=00:00:03.71 bitrate=7335.4kbits/s speed=0.0132x elapsed=0:04:42.46    \nframe=  227 fps=0.8 q=35.1 size=    3584KiB time=00:00:03.75 bitrate=7829.5kbits/s speed=0.0133x elapsed=0:04:42.97    \nframe=  227 fps=0.8 q=35.1 size=    3584KiB time=00:00:03.75 bitrate=7829.5kbits/s speed=0.0132x elapsed=0:04:43.49    \nframe=  227 fps=0.8 q=35.1 size=    3584KiB time=00:00:03.75 bitrate=7829.5kbits/s speed=0.0132x elapsed=0:04:44.00    \nframe=  228 fps=0.8 q=37.0 size=    3584KiB time=00:00:03.76 bitrate=7794.8kbits/s speed=0.0132x elapsed=0:04:44.53    \nframe=  229 fps=0.8 q=36.1 size=    3584KiB time=00:00:03.78 bitrate=7760.5kbits/s speed=0.0133x elapsed=0:04:45.09    \nframe=  231 fps=0.8 q=36.7 size=    3584KiB time=00:00:03.81 bitrate=7692.7kbits/s speed=0.0134x elapsed=0:04:45.59    \nframe=  232 fps=0.8 q=39.0 size=    3584KiB time=00:00:03.83 bitrate=7659.3kbits/s speed=0.0134x elapsed=0:04:46.11    \nframe=  233 fps=0.8 q=39.0 size=    3584KiB time=00:00:03.85 bitrate=7626.1kbits/s speed=0.0134x elapsed=0:04:46.64    \nframe=  233 fps=0.8 q=39.0 size=    3584KiB time=00:00:03.85 bitrate=7626.1kbits/s speed=0.0134x elapsed=0:04:47.16    \nframe=  234 fps=0.8 q=31.1 size=    3584KiB time=00:00:03.86 bitrate=7593.2kbits/s speed=0.0134x elapsed=0:04:47.68    \nframe=  235 fps=0.8 q=36.8 size=    3584KiB time=00:00:03.88 bitrate=7560.6kbits/s speed=0.0135x elapsed=0:04:48.19    \nframe=  235 fps=0.8 q=36.8 size=    3584KiB time=00:00:03.88 bitrate=7560.6kbits/s speed=0.0135x elapsed=0:04:48.71    \nframe=  236 fps=0.8 q=39.0 size=    3584KiB time=00:00:03.90 bitrate=7528.3kbits/s speed=0.0135x elapsed=0:04:49.22    \nframe=  237 fps=0.8 q=38.9 size=    3584KiB time=00:00:03.91 bitrate=7496.3kbits/s speed=0.0135x elapsed=0:04:49.73    \nframe=  237 fps=0.8 q=38.9 size=    3584KiB time=00:00:03.91 bitrate=7496.3kbits/s speed=0.0135x elapsed=0:04:50.25    \nframe=  239 fps=0.8 q=36.5 size=    3584KiB time=00:00:03.95 bitrate=7433.0kbits/s speed=0.0136x elapsed=0:04:50.78    \nframe=  239 fps=0.8 q=36.5 size=    3584KiB time=00:00:03.95 bitrate=7433.0kbits/s speed=0.0136x elapsed=0:04:51.30    \nframe=  239 fps=0.8 q=36.5 size=    3584KiB time=00:00:03.95 bitrate=7433.0kbits/s speed=0.0135x elapsed=0:04:51.86    \nframe=  240 fps=0.8 q=39.0 size=    3584KiB time=00:00:03.96 bitrate=7401.8kbits/s speed=0.0136x elapsed=0:04:52.39    \nframe=  240 fps=0.8 q=39.0 size=    3584KiB time=00:00:03.96 bitrate=7401.8kbits/s speed=0.0135x elapsed=0:04:52.91    \nframe=  241 fps=0.8 q=39.0 size=    3584KiB time=00:00:03.98 bitrate=7370.8kbits/s speed=0.0136x elapsed=0:04:53.43    \nframe=  242 fps=0.8 q=30.9 size=    3584KiB time=00:00:04.00 bitrate=7340.1kbits/s speed=0.0136x elapsed=0:04:54.00    \nframe=  243 fps=0.8 q=37.5 size=    3584KiB time=00:00:04.01 bitrate=7309.7kbits/s speed=0.0136x elapsed=0:04:54.58    \nframe=  244 fps=0.8 q=38.3 size=    3584KiB time=00:00:04.03 bitrate=7279.5kbits/s speed=0.0137x elapsed=0:04:55.14    \nframe=  244 fps=0.8 q=38.3 size=    3584KiB time=00:00:04.03 bitrate=7279.5kbits/s speed=0.0136x elapsed=0:04:55.66    \nframe=  244 fps=0.8 q=38.3 size=    3584KiB time=00:00:04.03 bitrate=7279.5kbits/s speed=0.0136x elapsed=0:04:56.21    \nframe=  244 fps=0.8 q=38.3 size=    3584KiB time=00:00:04.03 bitrate=7279.5kbits/s speed=0.0136x elapsed=0:04:56.81    \nframe=  244 fps=0.8 q=38.3 size=    3584KiB time=00:00:04.03 bitrate=7279.5kbits/s speed=0.0136x elapsed=0:04:57.40    \nframe=  245 fps=0.8 q=38.2 size=    3584KiB time=00:00:04.05 bitrate=7249.5kbits/s speed=0.0136x elapsed=0:04:57.94    \nframe=  245 fps=0.8 q=38.2 size=    3584KiB time=00:00:04.05 bitrate=7249.5kbits/s speed=0.0136x elapsed=0:04:58.48    \nframe=  246 fps=0.8 q=38.1 size=    3584KiB time=00:00:04.06 bitrate=7219.8kbits/s speed=0.0136x elapsed=0:04:59.02    \nframe=  246 fps=0.8 q=38.1 size=    3584KiB time=00:00:04.06 bitrate=7219.8kbits/s speed=0.0136x elapsed=0:04:59.56    \nframe=  247 fps=0.8 q=30.7 size=    3584KiB time=00:00:04.08 bitrate=7190.3kbits/s speed=0.0136x elapsed=0:05:00.09    \nframe=  248 fps=0.8 q=35.8 size=    3840KiB time=00:00:04.10 bitrate=7672.6kbits/s speed=0.0136x elapsed=0:05:00.61    \nframe=  248 fps=0.8 q=35.8 size=    3840KiB time=00:00:04.10 bitrate=7672.6kbits/s speed=0.0136x elapsed=0:05:01.13    \nframe=  248 fps=0.8 q=35.8 size=    3840KiB time=00:00:04.10 bitrate=7672.6kbits/s speed=0.0136x elapsed=0:05:01.68    \nframe=  248 fps=0.8 q=35.8 size=    3840KiB time=00:00:04.10 bitrate=7672.6kbits/s speed=0.0136x elapsed=0:05:02.22    \nframe=  248 fps=0.8 q=35.8 size=    3840KiB time=00:00:04.10 bitrate=7672.6kbits/s speed=0.0135x elapsed=0:05:02.75    \nframe=  248 fps=0.8 q=35.8 size=    3840KiB time=00:00:04.10 bitrate=7672.6kbits/s speed=0.0135x elapsed=0:05:03.27    \nframe=  248 fps=0.8 q=35.8 size=    3840KiB time=00:00:04.10 bitrate=7672.6kbits/s speed=0.0135x elapsed=0:05:03.79    \nframe=  248 fps=0.8 q=35.8 size=    3840KiB time=00:00:04.10 bitrate=7672.6kbits/s speed=0.0135x elapsed=0:05:04.33    \nframe=  248 fps=0.8 q=35.8 size=    3840KiB time=00:00:04.10 bitrate=7672.6kbits/s speed=0.0134x elapsed=0:05:04.86    \nframe=  248 fps=0.8 q=35.8 size=    3840KiB time=00:00:04.10 bitrate=7672.6kbits/s speed=0.0134x elapsed=0:05:05.38    \nframe=  248 fps=0.8 q=35.8 size=    3840KiB time=00:00:04.10 bitrate=7672.6kbits/s speed=0.0134x elapsed=0:05:05.92    \nframe=  249 fps=0.8 q=38.0 size=    3840KiB time=00:00:04.11 bitrate=7641.5kbits/s speed=0.0134x elapsed=0:05:06.49    \nframe=  249 fps=0.8 q=38.0 size=    3840KiB time=00:00:04.11 bitrate=7641.5kbits/s speed=0.0134x elapsed=0:05:07.02    \nframe=  250 fps=0.8 q=38.0 size=    3840KiB time=00:00:04.13 bitrate=7610.7kbits/s speed=0.0134x elapsed=0:05:07.58    \nframe=  250 fps=0.8 q=38.0 size=    3840KiB time=00:00:04.13 bitrate=7610.7kbits/s speed=0.0134x elapsed=0:05:08.10    \nframe=  250 fps=0.8 q=38.0 size=    3840KiB time=00:00:04.13 bitrate=7610.7kbits/s speed=0.0134x elapsed=0:05:08.63    \nframe=  250 fps=0.8 q=38.0 size=    3840KiB time=00:00:04.13 bitrate=7610.7kbits/s speed=0.0134x elapsed=0:05:09.19    \nframe=  250 fps=0.8 q=38.0 size=    3840KiB time=00:00:04.13 bitrate=7610.7kbits/s speed=0.0133x elapsed=0:05:09.71    \nframe=  251 fps=0.8 q=28.0 size=    3840KiB time=00:00:04.15 bitrate=7580.2kbits/s speed=0.0134x elapsed=0:05:10.23    \nframe=  253 fps=0.8 q=37.1 size=    4096KiB time=00:00:04.18 bitrate=8021.1kbits/s speed=0.0135x elapsed=0:05:10.82    \nframe=  254 fps=0.8 q=40.0 size=    4096KiB time=00:00:04.20 bitrate=7989.2kbits/s speed=0.0135x elapsed=0:05:11.36    \nframe=  255 fps=0.8 q=40.0 size=    4096KiB time=00:00:04.21 bitrate=7957.7kbits/s speed=0.0135x elapsed=0:05:11.90    \nframe=  255 fps=0.8 q=40.0 size=    4096KiB time=00:00:04.21 bitrate=7957.7kbits/s speed=0.0135x elapsed=0:05:12.44    \nframe=  256 fps=0.8 q=31.1 size=    4096KiB time=00:00:04.23 bitrate=7926.3kbits/s speed=0.0135x elapsed=0:05:12.97    \nframe=  257 fps=0.8 q=37.7 size=    4096KiB time=00:00:04.25 bitrate=7895.2kbits/s speed=0.0136x elapsed=0:05:13.50    \nframe=  257 fps=0.8 q=37.7 size=    4096KiB time=00:00:04.25 bitrate=7895.2kbits/s speed=0.0135x elapsed=0:05:14.03    \nframe=  257 fps=0.8 q=37.7 size=    4096KiB time=00:00:04.25 bitrate=7895.2kbits/s speed=0.0135x elapsed=0:05:14.56    \nframe=  257 fps=0.8 q=37.7 size=    4096KiB time=00:00:04.25 bitrate=7895.2kbits/s speed=0.0135x elapsed=0:05:15.10    \nframe=  259 fps=0.8 q=39.9 size=    4096KiB time=00:00:04.28 bitrate=7833.8kbits/s speed=0.0136x elapsed=0:05:15.66    \nframe=  259 fps=0.8 q=39.9 size=    4096KiB time=00:00:04.28 bitrate=7833.8kbits/s speed=0.0135x elapsed=0:05:16.20    \nframe=  259 fps=0.8 q=39.9 size=    4096KiB time=00:00:04.28 bitrate=7833.8kbits/s speed=0.0135x elapsed=0:05:16.74    \nframe=  259 fps=0.8 q=39.9 size=    4096KiB time=00:00:04.28 bitrate=7833.8kbits/s speed=0.0135x elapsed=0:05:17.25    \nframe=  260 fps=0.8 q=31.2 size=    4096KiB time=00:00:04.30 bitrate=7803.4kbits/s speed=0.0135x elapsed=0:05:17.77    \nframe=  261 fps=0.8 q=32.9 size=    4096KiB time=00:00:04.31 bitrate=7773.3kbits/s speed=0.0136x elapsed=0:05:18.28    \nframe=  262 fps=0.8 q=39.9 size=    4096KiB time=00:00:04.33 bitrate=7743.4kbits/s speed=0.0136x elapsed=0:05:18.80    \nframe=  262 fps=0.8 q=39.9 size=    4096KiB time=00:00:04.33 bitrate=7743.4kbits/s speed=0.0136x elapsed=0:05:19.32    \nframe=  262 fps=0.8 q=39.9 size=    4096KiB time=00:00:04.33 bitrate=7743.4kbits/s speed=0.0135x elapsed=0:05:19.85    \nframe=  262 fps=0.8 q=39.9 size=    4096KiB time=00:00:04.33 bitrate=7743.4kbits/s speed=0.0135x elapsed=0:05:20.41    \nframe=  262 fps=0.8 q=39.9 size=    4096KiB time=00:00:04.33 bitrate=7743.4kbits/s speed=0.0135x elapsed=0:05:20.96    \nframe=  262 fps=0.8 q=39.9 size=    4096KiB time=00:00:04.33 bitrate=7743.4kbits/s speed=0.0135x elapsed=0:05:21.51    \nframe=  262 fps=0.8 q=39.9 size=    4096KiB time=00:00:04.33 bitrate=7743.4kbits/s speed=0.0135x elapsed=0:05:22.03    \nframe=  262 fps=0.8 q=39.9 size=    4096KiB time=00:00:04.33 bitrate=7743.4kbits/s speed=0.0134x elapsed=0:05:22.57    \nframe=  263 fps=0.8 q=39.9 size=    4096KiB time=00:00:04.35 bitrate=7713.7kbits/s speed=0.0135x elapsed=0:05:23.10    \nframe=  264 fps=0.8 q=40.0 size=    4096KiB time=00:00:04.36 bitrate=7684.3kbits/s speed=0.0135x elapsed=0:05:23.64    \nframe=  264 fps=0.8 q=40.0 size=    4096KiB time=00:00:04.36 bitrate=7684.3kbits/s speed=0.0135x elapsed=0:05:24.16    \nframe=  264 fps=0.8 q=40.0 size=    4096KiB time=00:00:04.36 bitrate=7684.3kbits/s speed=0.0134x elapsed=0:05:24.69    \nframe=  265 fps=0.8 q=31.1 size=    4096KiB time=00:00:04.38 bitrate=7655.1kbits/s speed=0.0135x elapsed=0:05:25.22    \nframe=  266 fps=0.8 q=37.3 size=    4352KiB time=00:00:04.40 bitrate=8102.7kbits/s speed=0.0135x elapsed=0:05:25.75    \nframe=  267 fps=0.8 q=39.9 size=    4352KiB time=00:00:04.41 bitrate=8072.1kbits/s speed=0.0135x elapsed=0:05:26.29    \nframe=  267 fps=0.8 q=39.9 size=    4352KiB time=00:00:04.41 bitrate=8072.1kbits/s speed=0.0135x elapsed=0:05:26.83    \nframe=  267 fps=0.8 q=39.9 size=    4352KiB time=00:00:04.41 bitrate=8072.1kbits/s speed=0.0135x elapsed=0:05:27.36    \nframe=  267 fps=0.8 q=39.9 size=    4352KiB time=00:00:04.41 bitrate=8072.1kbits/s speed=0.0135x elapsed=0:05:27.88    \nframe=  267 fps=0.8 q=39.9 size=    4352KiB time=00:00:04.41 bitrate=8072.1kbits/s speed=0.0134x elapsed=0:05:28.42    \nframe=  268 fps=0.8 q=40.0 size=    4352KiB time=00:00:04.43 bitrate=8041.8kbits/s speed=0.0135x elapsed=0:05:28.95    \nframe=  269 fps=0.8 q=31.2 size=    4352KiB time=00:00:04.45 bitrate=8011.7kbits/s speed=0.0135x elapsed=0:05:29.48    \nframe=  270 fps=0.8 q=36.8 size=    4352KiB time=00:00:04.46 bitrate=7981.8kbits/s speed=0.0135x elapsed=0:05:30.01    \nframe=  270 fps=0.8 q=36.8 size=    4352KiB time=00:00:04.46 bitrate=7981.8kbits/s speed=0.0135x elapsed=0:05:30.54    \nframe=  271 fps=0.8 q=39.0 size=    4352KiB time=00:00:04.48 bitrate=7952.1kbits/s speed=0.0135x elapsed=0:05:31.08    \nframe=  271 fps=0.8 q=39.0 size=    4352KiB time=00:00:04.48 bitrate=7952.1kbits/s speed=0.0135x elapsed=0:05:31.62    \nframe=  271 fps=0.8 q=39.0 size=    4352KiB time=00:00:04.48 bitrate=7952.1kbits/s speed=0.0135x elapsed=0:05:32.18    \nframe=  271 fps=0.8 q=39.0 size=    4352KiB time=00:00:04.48 bitrate=7952.1kbits/s speed=0.0135x elapsed=0:05:32.76    \nframe=  271 fps=0.8 q=39.0 size=    4352KiB time=00:00:04.48 bitrate=7952.1kbits/s speed=0.0134x elapsed=0:05:33.33    \nframe=  271 fps=0.8 q=39.0 size=    4352KiB time=00:00:04.48 bitrate=7952.1kbits/s speed=0.0134x elapsed=0:05:33.98    \nframe=  271 fps=0.8 q=39.0 size=    4352KiB time=00:00:04.48 bitrate=7952.1kbits/s speed=0.0134x elapsed=0:05:34.62    \nframe=  272 fps=0.8 q=39.0 size=    4352KiB time=00:00:04.50 bitrate=7922.7kbits/s speed=0.0134x elapsed=0:05:35.20    \nframe=  272 fps=0.8 q=39.0 size=    4352KiB time=00:00:04.50 bitrate=7922.7kbits/s speed=0.0134x elapsed=0:05:35.77    \nframe=  273 fps=0.8 q=31.1 size=    4352KiB time=00:00:04.51 bitrate=7893.4kbits/s speed=0.0134x elapsed=0:05:36.37    \nframe=  273 fps=0.8 q=31.1 size=    4352KiB time=00:00:04.51 bitrate=7893.4kbits/s speed=0.0134x elapsed=0:05:36.91    \nframe=  273 fps=0.8 q=31.1 size=    4352KiB time=00:00:04.51 bitrate=7893.4kbits/s speed=0.0134x elapsed=0:05:37.44    \nframe=  274 fps=0.8 q=36.8 size=    4352KiB time=00:00:04.53 bitrate=7864.4kbits/s speed=0.0134x elapsed=0:05:37.97    \nframe=  274 fps=0.8 q=36.8 size=    4352KiB time=00:00:04.53 bitrate=7864.4kbits/s speed=0.0134x elapsed=0:05:38.53    \nframe=  276 fps=0.8 q=38.0 size=    4352KiB time=00:00:04.56 bitrate=7807.0kbits/s speed=0.0135x elapsed=0:05:39.07    \nframe=  277 fps=0.8 q=30.9 size=    4352KiB time=00:00:04.58 bitrate=7778.6kbits/s speed=0.0135x elapsed=0:05:39.59    \nframe=  278 fps=0.8 q=36.5 size=    4352KiB time=00:00:04.60 bitrate=7750.4kbits/s speed=0.0135x elapsed=0:05:40.12    \nframe=  278 fps=0.8 q=36.5 size=    4352KiB time=00:00:04.60 bitrate=7750.4kbits/s speed=0.0135x elapsed=0:05:40.67    \nframe=  278 fps=0.8 q=36.5 size=    4352KiB time=00:00:04.60 bitrate=7750.4kbits/s speed=0.0135x elapsed=0:05:41.19    \nframe=  280 fps=0.8 q=38.0 size=    4352KiB time=00:00:04.63 bitrate=7694.7kbits/s speed=0.0136x elapsed=0:05:41.72    \nframe=  282 fps=0.8 q=36.3 size=    4352KiB time=00:00:04.66 bitrate=7639.7kbits/s speed=0.0136x elapsed=0:05:42.24    \nframe=  282 fps=0.8 q=36.3 size=    4352KiB time=00:00:04.66 bitrate=7639.7kbits/s speed=0.0136x elapsed=0:05:42.79    \nframe=  282 fps=0.8 q=36.3 size=    4352KiB time=00:00:04.66 bitrate=7639.7kbits/s speed=0.0136x elapsed=0:05:43.31    \nframe=  283 fps=0.8 q=38.0 size=    4352KiB time=00:00:04.68 bitrate=7612.5kbits/s speed=0.0136x elapsed=0:05:43.81    \nframe=  283 fps=0.8 q=38.0 size=    4352KiB time=00:00:04.68 bitrate=7612.5kbits/s speed=0.0136x elapsed=0:05:44.33    \nframe=  286 fps=0.8 q=35.6 size=    4608KiB time=00:00:04.71 bitrate=8003.3kbits/s speed=0.0137x elapsed=0:05:44.85    \nframe=  286 fps=0.8 q=35.6 size=    4608KiB time=00:00:04.73 bitrate=7975.2kbits/s speed=0.0137x elapsed=0:05:45.37    \nframe=  286 fps=0.8 q=35.6 size=    4608KiB time=00:00:04.73 bitrate=7975.2kbits/s speed=0.0137x elapsed=0:05:45.90    \nframe=  287 fps=0.8 q=36.9 size=    4608KiB time=00:00:04.75 bitrate=7947.2kbits/s speed=0.0137x elapsed=0:05:46.41    \nframe=  289 fps=0.8 q=31.6 size=    4608KiB time=00:00:04.78 bitrate=7891.8kbits/s speed=0.0138x elapsed=0:05:46.94    \nframe=  290 fps=0.8 q=35.2 size=    4608KiB time=00:00:04.80 bitrate=7864.4kbits/s speed=0.0138x elapsed=0:05:47.46    \nframe=  290 fps=0.8 q=35.2 size=    4608KiB time=00:00:04.80 bitrate=7864.4kbits/s speed=0.0138x elapsed=0:05:47.98    \nframe=  290 fps=0.8 q=35.2 size=    4608KiB time=00:00:04.80 bitrate=7864.4kbits/s speed=0.0138x elapsed=0:05:48.51    \nframe=  291 fps=0.8 q=36.1 size=    4608KiB time=00:00:04.81 bitrate=7837.2kbits/s speed=0.0138x elapsed=0:05:49.01    \nframe=  291 fps=0.8 q=36.1 size=    4608KiB time=00:00:04.81 bitrate=7837.2kbits/s speed=0.0138x elapsed=0:05:49.53    \nframe=  292 fps=0.8 q=34.9 size=    4608KiB time=00:00:04.83 bitrate=7810.2kbits/s speed=0.0138x elapsed=0:05:50.06    \nframe=  293 fps=0.8 q=31.2 size=    4608KiB time=00:00:04.85 bitrate=7783.3kbits/s speed=0.0138x elapsed=0:05:50.56    \nframe=  293 fps=0.8 q=31.2 size=    4608KiB time=00:00:04.85 bitrate=7783.3kbits/s speed=0.0138x elapsed=0:05:51.08    \nframe=  294 fps=0.8 q=33.9 size=    4608KiB time=00:00:04.86 bitrate=7756.7kbits/s speed=0.0138x elapsed=0:05:51.61    \nframe=  295 fps=0.8 q=34.7 size=    4608KiB time=00:00:04.88 bitrate=7730.2kbits/s speed=0.0139x elapsed=0:05:52.13    \nframe=  295 fps=0.8 q=34.7 size=    4608KiB time=00:00:04.88 bitrate=7730.2kbits/s speed=0.0138x elapsed=0:05:52.65    \nframe=  295 fps=0.8 q=34.7 size=    4608KiB time=00:00:04.88 bitrate=7730.2kbits/s speed=0.0138x elapsed=0:05:53.17    \nframe=  295 fps=0.8 q=34.7 size=    4608KiB time=00:00:04.88 bitrate=7730.2kbits/s speed=0.0138x elapsed=0:05:53.71    \nframe=  297 fps=0.8 q=32.3 size=    4608KiB time=00:00:04.91 bitrate=7677.8kbits/s speed=0.0139x elapsed=0:05:54.22    \nframe=  298 fps=0.8 q=31.3 size=    4608KiB time=00:00:04.93 bitrate=7651.8kbits/s speed=0.0139x elapsed=0:05:54.74    \n[mp4 @ 0000019965ebf140] Starting second pass: moving the moov atom to the beginning of the file\n[out#0/mp4 @ 0000019965ebf040] video:4819KiB audio:0KiB subtitle:0KiB other streams:0KiB global headers:2KiB muxing overhead: 0.147578%\nframe=  300 fps=0.8 q=30.9 Lsize=    4826KiB time=00:00:04.96 bitrate=7959.7kbits/s speed=0.014x elapsed=0:05:54.95    \nx265 [info]: frame I:      2, Avg QP:29.98  kb/s: 127418.40\nx265 [info]: frame P:     77, Avg QP:31.76  kb/s: 24748.50\nx265 [info]: frame B:    221, Avg QP:37.76  kb/s: 938.62  \nx265 [info]: Weighted P-Frames: Y:0.0% UV:0.0%\n\nencoded 300 frames in 354.04s (0.85 fps), 7893.02 kb/s, Avg QP:36.17\n",
  "seconds": 355.64693808555603,
  "probe_out": {}
}